<svg width="50" height="50" viewBox="0 0 50 50" fill="none" xmlns="http://www.w3.org/2000/svg">
<mask id="mask0_50_681" style="mask-type:alpha" maskUnits="userSpaceOnUse" x="0" y="0" width="50" height="50">
<rect width="50" height="50" fill="#D9D9D9"/>
</mask>
<g mask="url(#mask0_50_681)">
<path d="M8.33333 45.8333C7.74306 45.8333 7.24826 45.6337 6.84896 45.2344C6.44965 44.8351 6.25 44.3403 6.25 43.75V33.3333C6.25 32.1875 6.65799 31.2066 7.47396 30.3906C8.28993 29.5747 9.27083 29.1667 10.4167 29.1667V20.8333C10.4167 19.6875 10.8247 18.7066 11.6406 17.8906C12.4566 17.0747 13.4375 16.6667 14.5833 16.6667H22.9167V13.6458C22.2917 13.2292 21.7882 12.7257 21.4062 12.1354C21.0243 11.5451 20.8333 10.8333 20.8333 10C20.8333 9.47918 20.9375 8.96702 21.1458 8.46355C21.3542 7.96008 21.6667 7.50001 22.0833 7.08334L24.2708 4.89584C24.3403 4.8264 24.5833 4.72223 25 4.58334C25.0694 4.58334 25.3125 4.68751 25.7292 4.89584L27.9167 7.08334C28.3333 7.50001 28.6458 7.96008 28.8542 8.46355C29.0625 8.96702 29.1667 9.47918 29.1667 10C29.1667 10.8333 28.9757 11.5451 28.5938 12.1354C28.2118 12.7257 27.7083 13.2292 27.0833 13.6458V16.6667H35.4167C36.5625 16.6667 37.5434 17.0747 38.3594 17.8906C39.1753 18.7066 39.5833 19.6875 39.5833 20.8333V29.1667C40.7292 29.1667 41.7101 29.5747 42.526 30.3906C43.342 31.2066 43.75 32.1875 43.75 33.3333V43.75C43.75 44.3403 43.5503 44.8351 43.151 45.2344C42.7517 45.6337 42.2569 45.8333 41.6667 45.8333H8.33333ZM14.5833 29.1667H35.4167V20.8333H14.5833V29.1667ZM10.4167 41.6667H39.5833V33.3333H10.4167V41.6667Z" fill="white"/>
</g>
</svg>
