<svg width="50" height="50" viewBox="0 0 50 50" fill="none" xmlns="http://www.w3.org/2000/svg">
    <mask id="mask0_282_52" style="mask-type:alpha" maskUnits="userSpaceOnUse" x="0" y="0"
        width="50" height="50">
        <rect width="50" height="50" fill="#D9D9D9" />
    </mask>
    <g mask="url(#mask0_282_52)">
        <path
            d="M24.9998 45.8333C22.1526 45.8333 19.4616 45.2864 16.9269 44.1927C14.3922 43.0989 12.1787 41.6059 10.2863 39.7135C8.39393 37.8211 6.90088 35.6076 5.80713 33.0729C4.71338 30.5382 4.1665 27.8472 4.1665 25C4.1665 22.118 4.73074 19.4097 5.85921 16.875C6.98768 14.3402 8.51546 12.1354 10.4425 10.2604C12.3696 8.38538 14.6179 6.901 17.1873 5.80725C19.7568 4.7135 22.4998 4.16663 25.4165 4.16663C28.1943 4.16663 30.8158 4.64406 33.2811 5.59892C35.7464 6.55378 37.9078 7.87322 39.7655 9.55725C41.6231 11.2413 43.0988 13.2378 44.1925 15.5468C45.2863 17.8559 45.8332 20.3472 45.8332 23.0208C45.8332 27.0139 44.6179 30.0781 42.1873 32.2135C39.7568 34.3489 36.8054 35.4166 33.3332 35.4166H29.479C29.1665 35.4166 28.9495 35.5034 28.828 35.677C28.7064 35.8507 28.6457 36.0416 28.6457 36.25C28.6457 36.6666 28.9061 37.2656 29.4269 38.0468C29.9478 38.8281 30.2082 39.7222 30.2082 40.7291C30.2082 42.4652 29.7307 43.75 28.7759 44.5833C27.821 45.4166 26.5623 45.8333 24.9998 45.8333ZM13.5415 27.0833C14.4443 27.0833 15.1908 26.7882 15.7811 26.1979C16.3714 25.6076 16.6665 24.8611 16.6665 23.9583C16.6665 23.0555 16.3714 22.309 15.7811 21.7187C15.1908 21.1284 14.4443 20.8333 13.5415 20.8333C12.6387 20.8333 11.8922 21.1284 11.3019 21.7187C10.7116 22.309 10.4165 23.0555 10.4165 23.9583C10.4165 24.8611 10.7116 25.6076 11.3019 26.1979C11.8922 26.7882 12.6387 27.0833 13.5415 27.0833ZM19.7915 18.75C20.6943 18.75 21.4408 18.4548 22.0311 17.8645C22.6214 17.2743 22.9165 16.5277 22.9165 15.625C22.9165 14.7222 22.6214 13.9757 22.0311 13.3854C21.4408 12.7951 20.6943 12.5 19.7915 12.5C18.8887 12.5 18.1422 12.7951 17.5519 13.3854C16.9616 13.9757 16.6665 14.7222 16.6665 15.625C16.6665 16.5277 16.9616 17.2743 17.5519 17.8645C18.1422 18.4548 18.8887 18.75 19.7915 18.75ZM30.2082 18.75C31.111 18.75 31.8575 18.4548 32.4478 17.8645C33.038 17.2743 33.3332 16.5277 33.3332 15.625C33.3332 14.7222 33.038 13.9757 32.4478 13.3854C31.8575 12.7951 31.111 12.5 30.2082 12.5C29.3054 12.5 28.5589 12.7951 27.9686 13.3854C27.3783 13.9757 27.0832 14.7222 27.0832 15.625C27.0832 16.5277 27.3783 17.2743 27.9686 17.8645C28.5589 18.4548 29.3054 18.75 30.2082 18.75ZM36.4582 27.0833C37.361 27.0833 38.1075 26.7882 38.6978 26.1979C39.288 25.6076 39.5832 24.8611 39.5832 23.9583C39.5832 23.0555 39.288 22.309 38.6978 21.7187C38.1075 21.1284 37.361 20.8333 36.4582 20.8333C35.5554 20.8333 34.8089 21.1284 34.2186 21.7187C33.6283 22.309 33.3332 23.0555 33.3332 23.9583C33.3332 24.8611 33.6283 25.6076 34.2186 26.1979C34.8089 26.7882 35.5554 27.0833 36.4582 27.0833ZM24.9998 41.6666C25.3123 41.6666 25.5641 41.5798 25.755 41.4062C25.946 41.2326 26.0415 41.0069 26.0415 40.7291C26.0415 40.243 25.7811 39.6701 25.2603 39.0104C24.7394 38.3507 24.479 37.3611 24.479 36.0416C24.479 34.5833 24.9825 33.4201 25.9894 32.552C26.9964 31.684 28.229 31.25 29.6873 31.25H33.3332C35.6248 31.25 37.5866 30.5816 39.2186 29.2448C40.8505 27.9079 41.6665 25.8333 41.6665 23.0208C41.6665 18.8194 40.0606 15.3211 36.8488 12.526C33.637 9.73086 29.8262 8.33329 25.4165 8.33329C20.6943 8.33329 16.6665 9.94788 13.3332 13.177C9.99984 16.4062 8.33317 20.3472 8.33317 25C8.33317 29.618 9.95644 33.5503 13.203 36.7968C16.4495 40.0434 20.3818 41.6666 24.9998 41.6666Z"
            fill="white" />
    </g>
</svg>