<svg width="50" height="50" viewBox="0 0 50 50" fill="none" xmlns="http://www.w3.org/2000/svg">
<mask id="mask0_261_1215" style="mask-type:alpha" maskUnits="userSpaceOnUse" x="0" y="0" width="50" height="50">
<rect width="50" height="50" fill="#D9D9D9"/>
</mask>
<g mask="url(#mask0_261_1215)">
<path d="M10.0522 25.0521L18.1252 33.125C18.5071 33.507 18.6981 33.9931 18.6981 34.5834C18.6981 35.1737 18.5071 35.6598 18.1252 36.0417C17.7432 36.4237 17.2571 36.6146 16.6668 36.6146C16.0766 36.6146 15.5904 36.4237 15.2085 36.0417L5.62516 26.4584C5.41683 26.25 5.26926 26.0243 5.18245 25.7813C5.09565 25.5382 5.05225 25.2778 5.05225 25C5.05225 24.7223 5.09565 24.4618 5.18245 24.2188C5.26926 23.9757 5.41683 23.75 5.62516 23.5417L15.2085 13.9584C15.6252 13.5417 16.12 13.3334 16.6929 13.3334C17.2658 13.3334 17.7606 13.5417 18.1772 13.9584C18.5939 14.375 18.8022 14.8698 18.8022 15.4427C18.8022 16.0157 18.5939 16.5105 18.1772 16.9271L10.0522 25.0521ZM39.9481 24.948L31.8752 16.875C31.4932 16.4931 31.3022 16.007 31.3022 15.4167C31.3022 14.8264 31.4932 14.3403 31.8752 13.9584C32.2571 13.5764 32.7432 13.3855 33.3335 13.3855C33.9238 13.3855 34.4099 13.5764 34.7918 13.9584L44.3752 23.5417C44.5835 23.75 44.7311 23.9757 44.8179 24.2188C44.9047 24.4618 44.9481 24.7223 44.9481 25C44.9481 25.2778 44.9047 25.5382 44.8179 25.7813C44.7311 26.0243 44.5835 26.25 44.3752 26.4584L34.7918 36.0417C34.3752 36.4584 33.889 36.658 33.3335 36.6407C32.7779 36.6233 32.2918 36.4063 31.8752 35.9896C31.4585 35.573 31.2502 35.0782 31.2502 34.5052C31.2502 33.9323 31.4585 33.4375 31.8752 33.0209L39.9481 24.948Z" fill="white" fill-opacity="0.6"/>
</g>
</svg>
