<svg width="50" height="50" viewBox="0 0 50 50" fill="none" xmlns="http://www.w3.org/2000/svg">
    <mask id="mask0_282_88" style="mask-type:alpha" maskUnits="userSpaceOnUse" x="0" y="0"
        width="50" height="50">
        <rect width="50" height="50" fill="#D9D9D9" />
    </mask>
    <g mask="url(#mask0_282_88)">
        <path
            d="M25.0002 45.8333C24.0974 45.8333 23.2814 45.6163 22.5522 45.1823C21.8231 44.7482 21.2502 44.1666 20.8335 43.4375C19.6877 43.4375 18.7068 43.0295 17.8908 42.2135C17.0748 41.3975 16.6668 40.4166 16.6668 39.2708V31.875C14.6182 30.5208 12.9776 28.7326 11.745 26.5104C10.5123 24.2882 9.896 21.875 9.896 19.2708C9.896 15.0694 11.363 11.5017 14.297 8.56767C17.2311 5.63364 20.7988 4.16663 25.0002 4.16663C29.2016 4.16663 32.7693 5.63364 35.7033 8.56767C38.6373 11.5017 40.1043 15.0694 40.1043 19.2708C40.1043 21.9444 39.488 24.375 38.2554 26.5625C37.0227 28.75 35.3821 30.5208 33.3335 31.875V39.2708C33.3335 40.4166 32.9255 41.3975 32.1095 42.2135C31.2936 43.0295 30.3127 43.4375 29.1668 43.4375C28.7502 44.1666 28.1772 44.7482 27.4481 45.1823C26.7189 45.6163 25.9029 45.8333 25.0002 45.8333ZM20.8335 39.2708H29.1668V37.3958H20.8335V39.2708ZM20.8335 35.3125H29.1668V33.3333H20.8335V35.3125ZM20.4168 29.1666H23.4377V23.5416L19.9481 20.052C19.6356 19.7395 19.4793 19.375 19.4793 18.9583C19.4793 18.5416 19.6356 18.177 19.9481 17.8645C20.2606 17.552 20.6252 17.3958 21.0418 17.3958C21.4585 17.3958 21.8231 17.552 22.1356 17.8645L25.0002 20.7291L27.8647 17.8645C28.1772 17.552 28.5418 17.3958 28.9585 17.3958C29.3752 17.3958 29.7397 17.552 30.0522 17.8645C30.3647 18.177 30.521 18.5416 30.521 18.9583C30.521 19.375 30.3647 19.7395 30.0522 20.052L26.5627 23.5416V29.1666H29.5835C31.4585 28.2638 32.9863 26.9357 34.1668 25.1823C35.3474 23.4288 35.9377 21.4583 35.9377 19.2708C35.9377 16.2152 34.8786 13.6284 32.7606 11.5104C30.6425 9.39232 28.0557 8.33329 25.0002 8.33329C21.9446 8.33329 19.3578 9.39232 17.2397 11.5104C15.1217 13.6284 14.0627 16.2152 14.0627 19.2708C14.0627 21.4583 14.6529 23.4288 15.8335 25.1823C17.0141 26.9357 18.5418 28.2638 20.4168 29.1666Z"
            fill="white" />
    </g>
</svg>