<svg width="73" height="73" viewBox="0 0 73 73" fill="none" xmlns="http://www.w3.org/2000/svg">
<mask id="mask0_50_490" style="mask-type:alpha" maskUnits="userSpaceOnUse" x="0" y="0" width="73" height="73">
<rect width="73" height="73" fill="#D9D9D9"/>
</mask>
<g mask="url(#mask0_50_490)">
<path d="M57.7917 63.875C55.8146 63.875 54.0403 63.3047 52.4688 62.1641C50.8973 61.0234 49.8073 59.566 49.199 57.7917H33.4584C30.1125 57.7917 27.2483 56.6003 24.8657 54.2177C22.483 51.8351 21.2917 48.9708 21.2917 45.625C21.2917 42.2792 22.483 39.4149 24.8657 37.0323C27.2483 34.6497 30.1125 33.4583 33.4584 33.4583H39.5417C41.2146 33.4583 42.6467 32.8627 43.8381 31.6714C45.0294 30.48 45.625 29.0479 45.625 27.375C45.625 25.7021 45.0294 24.27 43.8381 23.0786C42.6467 21.8873 41.2146 21.2917 39.5417 21.2917H23.8011C23.1421 23.066 22.0395 24.5234 20.4933 25.6641C18.9471 26.8047 17.1855 27.375 15.2084 27.375C12.6737 27.375 10.5191 26.4878 8.74483 24.7135C6.97053 22.9392 6.08337 20.7847 6.08337 18.25C6.08337 15.7153 6.97053 13.5608 8.74483 11.7865C10.5191 10.0122 12.6737 9.125 15.2084 9.125C17.1855 9.125 18.9471 9.69531 20.4933 10.8359C22.0395 11.9766 23.1421 13.434 23.8011 15.2083H39.5417C42.8875 15.2083 45.7518 16.3997 48.1344 18.7823C50.5171 21.1649 51.7084 24.0292 51.7084 27.375C51.7084 30.7208 50.5171 33.5851 48.1344 35.9677C45.7518 38.3503 42.8875 39.5417 39.5417 39.5417H33.4584C31.7855 39.5417 30.3533 40.1373 29.162 41.3286C27.9707 42.52 27.375 43.9521 27.375 45.625C27.375 47.2979 27.9707 48.73 29.162 49.9214C30.3533 51.1127 31.7855 51.7083 33.4584 51.7083H49.199C49.858 49.934 50.9606 48.4766 52.5068 47.3359C54.053 46.1953 55.8146 45.625 57.7917 45.625C60.3264 45.625 62.4809 46.5122 64.2552 48.2865C66.0296 50.0608 66.9167 52.2153 66.9167 54.75C66.9167 57.2847 66.0296 59.4392 64.2552 61.2135C62.4809 62.9879 60.3264 63.875 57.7917 63.875ZM15.2084 21.2917C16.0702 21.2917 16.7926 21.0002 17.3756 20.4172C17.9585 19.8342 18.25 19.1118 18.25 18.25C18.25 17.3882 17.9585 16.6658 17.3756 16.0828C16.7926 15.4998 16.0702 15.2083 15.2084 15.2083C14.3466 15.2083 13.6242 15.4998 13.0412 16.0828C12.4582 16.6658 12.1667 17.3882 12.1667 18.25C12.1667 19.1118 12.4582 19.8342 13.0412 20.4172C13.6242 21.0002 14.3466 21.2917 15.2084 21.2917Z" fill="#ECECEC"/>
</g>
</svg>
