<svg width="73" height="73" viewBox="0 0 73 73" fill="none" xmlns="http://www.w3.org/2000/svg">
<mask id="mask0_50_502" style="mask-type:alpha" maskUnits="userSpaceOnUse" x="0" y="0" width="73" height="73">
<rect width="73" height="73" fill="#D9D9D9"/>
</mask>
<g mask="url(#mask0_50_502)">
<path d="M57.3355 66.8406C56.9299 66.8406 56.5497 66.7773 56.1948 66.6505C55.84 66.5238 55.5105 66.3084 55.2063 66.0042L39.6938 50.4917C39.3896 50.1875 39.1742 49.858 39.0474 49.5031C38.9207 49.1483 38.8573 48.7681 38.8573 48.3625C38.8573 47.957 38.9207 47.5768 39.0474 47.2219C39.1742 46.867 39.3896 46.5375 39.6938 46.2334L46.1573 39.7698C46.4615 39.4656 46.791 39.2502 47.1459 39.1235C47.5007 38.9967 47.8809 38.9334 48.2865 38.9334C48.6921 38.9334 49.0723 38.9967 49.4271 39.1235C49.782 39.2502 50.1115 39.4656 50.4157 39.7698L65.9282 55.2823C66.2323 55.5865 66.4478 55.916 66.5745 56.2709C66.7013 56.6257 66.7646 57.0059 66.7646 57.4115C66.7646 57.817 66.7013 58.1972 66.5745 58.5521C66.4478 58.907 66.2323 59.2365 65.9282 59.5406L59.4646 66.0042C59.1605 66.3084 58.8309 66.5238 58.4761 66.6505C58.1212 66.7773 57.741 66.8406 57.3355 66.8406ZM15.5886 66.9167C15.183 66.9167 14.7901 66.8406 14.4099 66.6886C14.0297 66.5365 13.6875 66.3084 13.3834 66.0042L6.99587 59.6167C6.69171 59.3125 6.46358 58.9703 6.3115 58.5901C6.15942 58.2099 6.08337 57.817 6.08337 57.4115C6.08337 57.0059 6.15942 56.6257 6.3115 56.2709C6.46358 55.916 6.69171 55.5865 6.99587 55.2823L23.1167 39.1615H29.5802L32.1657 36.5761L19.6188 24.0292H15.2844L6.08337 14.8281L14.6761 6.23544L23.8771 15.4365V19.7709L36.424 32.3177L45.2448 23.4969L41.975 20.2271L46.2334 15.9688H37.6407L35.5115 13.8396L46.3094 3.04169L48.4386 5.17085V13.7636L52.6969 9.50523L63.4948 20.3031C64.3566 21.165 65.0157 22.1408 65.4719 23.2308C65.9282 24.3207 66.1563 25.474 66.1563 26.6906C66.1563 27.9073 65.9282 29.0733 65.4719 30.1886C65.0157 31.3038 64.3566 32.2924 63.4948 33.1542L57.0313 26.6906L52.773 30.949L49.5792 27.7552L33.8386 43.4959V49.8834L17.7177 66.0042C17.4136 66.3084 17.0841 66.5365 16.7292 66.6886C16.3743 66.8406 15.9941 66.9167 15.5886 66.9167Z" fill="#ECECEC"/>
</g>
</svg>
