<svg width="50" height="50" viewBox="0 0 50 50" fill="none" xmlns="http://www.w3.org/2000/svg">
    <mask id="mask0_282_62" style="mask-type:alpha" maskUnits="userSpaceOnUse" x="0" y="0"
        width="50" height="50">
        <rect width="50" height="50" fill="#D9D9D9" />
    </mask>
    <g mask="url(#mask0_282_62)">
        <path
            d="M17.7082 41.6667C16.8401 41.6667 16.1023 41.3629 15.4946 40.7552C14.887 40.1476 14.5832 39.4098 14.5832 38.5417V14.5834H7.2915C6.42345 14.5834 5.6856 14.2796 5.07796 13.6719C4.47032 13.0643 4.1665 12.3264 4.1665 11.4584C4.1665 10.5903 4.47032 9.85247 5.07796 9.24483C5.6856 8.63719 6.42345 8.33337 7.2915 8.33337H28.1248C28.9929 8.33337 29.7307 8.63719 30.3384 9.24483C30.946 9.85247 31.2498 10.5903 31.2498 11.4584C31.2498 12.3264 30.946 13.0643 30.3384 13.6719C29.7307 14.2796 28.9929 14.5834 28.1248 14.5834H20.8332V38.5417C20.8332 39.4098 20.5294 40.1476 19.9217 40.7552C19.3141 41.3629 18.5762 41.6667 17.7082 41.6667ZM36.4582 41.6667C35.5901 41.6667 34.8523 41.3629 34.2446 40.7552C33.637 40.1476 33.3332 39.4098 33.3332 38.5417V25H30.2082C29.3401 25 28.6023 24.6962 27.9946 24.0886C27.387 23.4809 27.0832 22.7431 27.0832 21.875C27.0832 21.007 27.387 20.2691 27.9946 19.6615C28.6023 19.0539 29.3401 18.75 30.2082 18.75H42.7082C43.5762 18.75 44.3141 19.0539 44.9217 19.6615C45.5294 20.2691 45.8332 21.007 45.8332 21.875C45.8332 22.7431 45.5294 23.4809 44.9217 24.0886C44.3141 24.6962 43.5762 25 42.7082 25H39.5832V38.5417C39.5832 39.4098 39.2794 40.1476 38.6717 40.7552C38.0641 41.3629 37.3262 41.6667 36.4582 41.6667Z"
            fill="white" fill-opacity="0.6" />
    </g>
</svg>