<svg width="73" height="73" viewBox="0 0 73 73" fill="none" xmlns="http://www.w3.org/2000/svg">
<mask id="mask0_50_580" style="mask-type:alpha" maskUnits="userSpaceOnUse" x="0" y="0" width="73" height="73">
<rect width="73" height="73" fill="#D9D9D9"/>
</mask>
<g mask="url(#mask0_50_580)">
<path d="M36.5 66.9166C32.3431 66.9166 28.4143 66.1182 24.7136 64.5213C21.0129 62.9245 17.7811 60.7446 15.0183 57.9817C12.2554 55.2189 10.0756 51.9871 8.47869 48.2864C6.88181 44.5857 6.08337 40.6569 6.08337 36.5C6.08337 32.2923 6.88181 28.3508 8.47869 24.6755C10.0756 21.0002 12.2554 17.7811 15.0183 15.0182C17.7811 12.2554 21.0129 10.0755 24.7136 8.47863C28.4143 6.88175 32.3431 6.08331 36.5 6.08331C40.7077 6.08331 44.6492 6.88175 48.3245 8.47863C51.9999 10.0755 55.219 12.2554 57.9818 15.0182C60.7447 17.7811 62.9245 21.0002 64.5214 24.6755C66.1183 28.3508 66.9167 32.2923 66.9167 36.5C66.9167 40.6569 66.1183 44.5857 64.5214 48.2864C62.9245 51.9871 60.7447 55.2189 57.9818 57.9817C55.219 60.7446 51.9999 62.9245 48.3245 64.5213C44.6492 66.1182 40.7077 66.9166 36.5 66.9166ZM36.5 60.6812C37.8181 58.8562 38.9587 56.9552 39.9219 54.9781C40.8851 53.001 41.6709 50.8972 42.2792 48.6666H30.7209C31.3292 50.8972 32.115 53.001 33.0782 54.9781C34.0414 56.9552 35.182 58.8562 36.5 60.6812ZM28.5917 59.4646C27.6792 57.7916 26.8808 56.0554 26.1964 54.2557C25.512 52.4561 24.9417 50.593 24.4855 48.6666H15.5125C16.9827 51.2014 18.8204 53.4066 21.0256 55.2823C23.2308 57.158 25.7528 58.5521 28.5917 59.4646ZM44.4084 59.4646C47.2473 58.5521 49.7693 57.158 51.9745 55.2823C54.1797 53.4066 56.0174 51.2014 57.4875 48.6666H48.5146C48.0584 50.593 47.4881 52.4561 46.8037 54.2557C46.1193 56.0554 45.3209 57.7916 44.4084 59.4646ZM12.9271 42.5833H23.2688C23.1167 41.5694 23.0026 40.5682 22.9266 39.5797C22.8506 38.5911 22.8125 37.5646 22.8125 36.5C22.8125 35.4354 22.8506 34.4088 22.9266 33.4203C23.0026 32.4317 23.1167 31.4305 23.2688 30.4166H12.9271C12.6737 31.4305 12.4835 32.4317 12.3568 33.4203C12.2301 34.4088 12.1667 35.4354 12.1667 36.5C12.1667 37.5646 12.2301 38.5911 12.3568 39.5797C12.4835 40.5682 12.6737 41.5694 12.9271 42.5833ZM29.3521 42.5833H43.648C43.8 41.5694 43.9141 40.5682 43.9901 39.5797C44.0662 38.5911 44.1042 37.5646 44.1042 36.5C44.1042 35.4354 44.0662 34.4088 43.9901 33.4203C43.9141 32.4317 43.8 31.4305 43.648 30.4166H29.3521C29.2 31.4305 29.086 32.4317 29.0099 33.4203C28.9339 34.4088 28.8959 35.4354 28.8959 36.5C28.8959 37.5646 28.9339 38.5911 29.0099 39.5797C29.086 40.5682 29.2 41.5694 29.3521 42.5833ZM49.7313 42.5833H60.073C60.3264 41.5694 60.5165 40.5682 60.6433 39.5797C60.77 38.5911 60.8334 37.5646 60.8334 36.5C60.8334 35.4354 60.77 34.4088 60.6433 33.4203C60.5165 32.4317 60.3264 31.4305 60.073 30.4166H49.7313C49.8834 31.4305 49.9974 32.4317 50.0735 33.4203C50.1495 34.4088 50.1875 35.4354 50.1875 36.5C50.1875 37.5646 50.1495 38.5911 50.0735 39.5797C49.9974 40.5682 49.8834 41.5694 49.7313 42.5833ZM48.5146 24.3333H57.4875C56.0174 21.7986 54.1797 19.5934 51.9745 17.7177C49.7693 15.842 47.2473 14.4479 44.4084 13.5354C45.3209 15.2083 46.1193 16.9446 46.8037 18.7442C47.4881 20.5439 48.0584 22.4069 48.5146 24.3333ZM30.7209 24.3333H42.2792C41.6709 22.1028 40.8851 19.9989 39.9219 18.0219C38.9587 16.0448 37.8181 14.1437 36.5 12.3187C35.182 14.1437 34.0414 16.0448 33.0782 18.0219C32.115 19.9989 31.3292 22.1028 30.7209 24.3333ZM15.5125 24.3333H24.4855C24.9417 22.4069 25.512 20.5439 26.1964 18.7442C26.8808 16.9446 27.6792 15.2083 28.5917 13.5354C25.7528 14.4479 23.2308 15.842 21.0256 17.7177C18.8204 19.5934 16.9827 21.7986 15.5125 24.3333Z" fill="#ECECEC"/>
</g>
</svg>
