<svg width="73" height="59" viewBox="0 0 73 59" fill="none" xmlns="http://www.w3.org/2000/svg">
<mask id="mask0_50_583" style="mask-type:alpha" maskUnits="userSpaceOnUse" x="0" y="0" width="73" height="59">
<rect width="73" height="59" fill="#D9D9D9"/>
</mask>
<g mask="url(#mask0_50_583)">
<path d="M36.5 54.0833C32.3431 54.0833 28.4143 53.438 24.7136 52.1474C21.0129 50.8567 17.7811 49.0949 15.0183 46.8619C12.2554 44.629 10.0756 42.017 8.47869 39.026C6.88181 36.035 6.08337 32.8597 6.08337 29.5C6.08337 26.0993 6.88181 22.9137 8.47869 19.9432C10.0756 16.9727 12.2554 14.371 15.0183 12.138C17.7811 9.90499 21.0129 8.14319 24.7136 6.85256C28.4143 5.56194 32.3431 4.91663 36.5 4.91663C40.7077 4.91663 44.6492 5.56194 48.3245 6.85256C51.9999 8.14319 55.219 9.90499 57.9818 12.138C60.7447 14.371 62.9245 16.9727 64.5214 19.9432C66.1183 22.9137 66.9167 26.0993 66.9167 29.5C66.9167 32.8597 66.1183 36.035 64.5214 39.026C62.9245 42.017 60.7447 44.629 57.9818 46.8619C55.219 49.0949 51.9999 50.8567 48.3245 52.1474C44.6492 53.438 40.7077 54.0833 36.5 54.0833ZM36.5 49.0437C37.8181 47.5687 38.9587 46.0323 39.9219 44.4343C40.8851 42.8364 41.6709 41.1361 42.2792 39.3333H30.7209C31.3292 41.1361 32.115 42.8364 33.0782 44.4343C34.0414 46.0323 35.182 47.5687 36.5 49.0437ZM28.5917 48.0604C27.6792 46.7083 26.8808 45.305 26.1964 43.8505C25.512 42.396 24.9417 40.8902 24.4855 39.3333H15.5125C16.9827 41.3819 18.8204 43.1642 21.0256 44.6802C23.2308 46.1961 25.7528 47.3229 28.5917 48.0604ZM44.4084 48.0604C47.2473 47.3229 49.7693 46.1961 51.9745 44.6802C54.1797 43.1642 56.0174 41.3819 57.4875 39.3333H48.5146C48.0584 40.8902 47.4881 42.396 46.8037 43.8505C46.1193 45.305 45.3209 46.7083 44.4084 48.0604ZM12.9271 34.4166H23.2688C23.1167 33.5972 23.0026 32.788 22.9266 31.989C22.8506 31.1901 22.8125 30.3604 22.8125 29.5C22.8125 28.6395 22.8506 27.8099 22.9266 27.0109C23.0026 26.2119 23.1167 25.4027 23.2688 24.5833H12.9271C12.6737 25.4027 12.4835 26.2119 12.3568 27.0109C12.2301 27.8099 12.1667 28.6395 12.1667 29.5C12.1667 30.3604 12.2301 31.1901 12.3568 31.989C12.4835 32.788 12.6737 33.5972 12.9271 34.4166ZM29.3521 34.4166H43.648C43.8 33.5972 43.9141 32.788 43.9901 31.989C44.0662 31.1901 44.1042 30.3604 44.1042 29.5C44.1042 28.6395 44.0662 27.8099 43.9901 27.0109C43.9141 26.2119 43.8 25.4027 43.648 24.5833H29.3521C29.2 25.4027 29.086 26.2119 29.0099 27.0109C28.9339 27.8099 28.8959 28.6395 28.8959 29.5C28.8959 30.3604 28.9339 31.1901 29.0099 31.989C29.086 32.788 29.2 33.5972 29.3521 34.4166ZM49.7313 34.4166H60.073C60.3264 33.5972 60.5165 32.788 60.6433 31.989C60.77 31.1901 60.8334 30.3604 60.8334 29.5C60.8334 28.6395 60.77 27.8099 60.6433 27.0109C60.5165 26.2119 60.3264 25.4027 60.073 24.5833H49.7313C49.8834 25.4027 49.9974 26.2119 50.0735 27.0109C50.1495 27.8099 50.1875 28.6395 50.1875 29.5C50.1875 30.3604 50.1495 31.1901 50.0735 31.989C49.9974 32.788 49.8834 33.5972 49.7313 34.4166ZM48.5146 19.6666H57.4875C56.0174 17.618 54.1797 15.8357 51.9745 14.3198C49.7693 12.8038 47.2473 11.677 44.4084 10.9395C45.3209 12.2916 46.1193 13.6949 46.8037 15.1494C47.4881 16.604 48.0584 18.1097 48.5146 19.6666ZM30.7209 19.6666H42.2792C41.6709 17.8638 40.8851 16.1635 39.9219 14.5656C38.9587 12.9677 37.8181 11.4312 36.5 9.95621C35.182 11.4312 34.0414 12.9677 33.0782 14.5656C32.115 16.1635 31.3292 17.8638 30.7209 19.6666ZM15.5125 19.6666H24.4855C24.9417 18.1097 25.512 16.604 26.1964 15.1494C26.8808 13.6949 27.6792 12.2916 28.5917 10.9395C25.7528 11.677 23.2308 12.8038 21.0256 14.3198C18.8204 15.8357 16.9827 17.618 15.5125 19.6666Z" fill="#ECECEC"/>
</g>
</svg>
