<svg width="174" height="126" viewBox="0 0 174 126" fill="none" xmlns="http://www.w3.org/2000/svg">
<path fill-rule="evenodd" clip-rule="evenodd" d="M20 1C14.4772 1 10 5.47715 10 11V85C10 90.5229 14.4772 95 20 95H61C66.5228 95 71 90.5229 71 85C71 90.5229 75.4772 95 81 95H154C159.523 95 164 90.5229 164 85V22C164 16.4772 159.523 12 154 12H82H81H76.5643C75.6742 11.7789 74.7666 11.46 74 11C72.506 10.1036 71.1905 8.4929 70.2671 7.23508C68.7799 3.5782 65.191 1 61 1H20Z" fill="url(#paint0_linear_397_473)"/>
<path d="M76.5643 12L76.4438 12.4853L76.5032 12.5H76.5643V12ZM74 11L74.2572 10.5713L74.2572 10.5713L74 11ZM70.2671 7.23508L69.8039 7.42344L69.8273 7.48095L69.864 7.53098L70.2671 7.23508ZM10.5 11C10.5 5.75329 14.7533 1.5 20 1.5V0.5C14.201 0.5 9.5 5.20101 9.5 11H10.5ZM10.5 85V11H9.5V85H10.5ZM20 94.5C14.7533 94.5 10.5 90.2467 10.5 85H9.5C9.5 90.799 14.201 95.5 20 95.5V94.5ZM61 94.5H20V95.5H61V94.5ZM70.5 85C70.5 90.2467 66.2467 94.5 61 94.5V95.5C66.799 95.5 71.5 90.799 71.5 85H70.5ZM81 94.5C75.7533 94.5 71.5 90.2467 71.5 85H70.5C70.5 90.799 75.201 95.5 81 95.5V94.5ZM154 94.5H81V95.5H154V94.5ZM163.5 85C163.5 90.2467 159.247 94.5 154 94.5V95.5C159.799 95.5 164.5 90.799 164.5 85H163.5ZM163.5 22V85H164.5V22H163.5ZM154 12.5C159.247 12.5 163.5 16.7533 163.5 22H164.5C164.5 16.201 159.799 11.5 154 11.5V12.5ZM82 12.5H154V11.5H82V12.5ZM81 12.5H82V11.5H81V12.5ZM76.5643 12.5H81V11.5H76.5643V12.5ZM76.6849 11.5147C75.8222 11.3004 74.9662 10.9966 74.2572 10.5713L73.7428 11.4287C74.567 11.9233 75.5263 12.2573 76.4438 12.4853L76.6849 11.5147ZM74.2572 10.5713C72.8567 9.73094 71.5916 8.19433 70.6701 6.93918L69.864 7.53098C70.7894 8.79147 72.1552 10.4762 73.7428 11.4287L74.2572 10.5713ZM61 1.5C64.9807 1.5 68.3907 3.94847 69.8039 7.42344L70.7302 7.04672C69.1691 3.20793 65.4014 0.5 61 0.5V1.5ZM20 1.5H61V0.5H20V1.5Z" fill="#D9D9D9"/>
<path d="M1.3312 53.1821C0.622936 47.2327 5.26962 42 11.2611 42H162.739C168.73 42 173.377 47.2327 172.669 53.1821L165.05 117.182C164.451 122.212 160.185 126 155.12 126H18.8801C13.8145 126 9.54907 122.212 8.95025 117.182L1.3312 53.1821Z" fill="white"/>
<mask id="mask0_397_473" style="mask-type:alpha" maskUnits="userSpaceOnUse" x="50" y="55" width="73" height="59">
<rect x="50" y="55" width="73" height="59" fill="#D9D9D9"/>
</mask>
<g mask="url(#mask0_397_473)">
<path d="M86.5 96.7916C87.3618 96.7916 88.0842 96.556 88.6672 96.0849C89.2502 95.6137 89.5417 95.0298 89.5417 94.3333V84.5C89.5417 83.8034 89.2502 83.2196 88.6672 82.7484C88.0842 82.2772 87.3618 82.0416 86.5 82.0416C85.6382 82.0416 84.9158 82.2772 84.3329 82.7484C83.7499 83.2196 83.4584 83.8034 83.4584 84.5V94.3333C83.4584 95.0298 83.7499 95.6137 84.3329 96.0849C84.9158 96.556 85.6382 96.7916 86.5 96.7916ZM86.5 77.125C87.3618 77.125 88.0842 76.8894 88.6672 76.4182C89.2502 75.947 89.5417 75.3632 89.5417 74.6666C89.5417 73.9701 89.2502 73.3862 88.6672 72.9151C88.0842 72.4439 87.3618 72.2083 86.5 72.2083C85.6382 72.2083 84.9158 72.4439 84.3329 72.9151C83.7499 73.3862 83.4584 73.9701 83.4584 74.6666C83.4584 75.3632 83.7499 75.947 84.3329 76.4182C84.9158 76.8894 85.6382 77.125 86.5 77.125ZM86.5 109.083C82.2924 109.083 78.3382 108.438 74.6375 107.147C70.9368 105.857 67.7177 104.105 64.9802 101.893C62.2427 99.6802 60.0756 97.0784 58.4787 94.0875C56.8818 91.0965 56.0834 87.9007 56.0834 84.5C56.0834 81.0993 56.8818 77.9034 58.4787 74.9125C60.0756 71.9215 62.2427 69.3198 64.9802 67.1073C67.7177 64.8948 70.9368 63.1432 74.6375 61.8526C78.3382 60.5619 82.2924 59.9166 86.5 59.9166C90.7077 59.9166 94.6618 60.5619 98.3625 61.8526C102.063 63.1432 105.282 64.8948 108.02 67.1073C110.757 69.3198 112.925 71.9215 114.521 74.9125C116.118 77.9034 116.917 81.0993 116.917 84.5C116.917 87.9007 116.118 91.0965 114.521 94.0875C112.925 97.0784 110.757 99.6802 108.02 101.893C105.282 104.105 102.063 105.857 98.3625 107.147C94.6618 108.438 90.7077 109.083 86.5 109.083Z" fill="#ECECEC"/>
</g>
<defs>
<linearGradient id="paint0_linear_397_473" x1="87" y1="1" x2="87" y2="95" gradientUnits="userSpaceOnUse">
<stop stop-color="white"/>
<stop offset="0.432292" stop-color="#B5B5B5"/>
</linearGradient>
</defs>
</svg>
