<svg width="174" height="126" viewBox="0 0 174 126" fill="none" xmlns="http://www.w3.org/2000/svg">
<path fill-rule="evenodd" clip-rule="evenodd" d="M20 1C14.4772 1 10 5.47715 10 11V85C10 90.5229 14.4772 95 20 95H61C66.5228 95 71 90.5229 71 85C71 90.5229 75.4772 95 81 95H154C159.523 95 164 90.5229 164 85V22C164 16.4772 159.523 12 154 12H82H81H76.5643C75.6742 11.7789 74.7666 11.46 74 11C72.506 10.1036 71.1905 8.4929 70.2671 7.23508C68.7799 3.5782 65.191 1 61 1H20Z" fill="url(#paint0_linear_397_514)"/>
<path d="M76.5643 12L76.4438 12.4853L76.5032 12.5H76.5643V12ZM74 11L74.2572 10.5713L74.2572 10.5713L74 11ZM70.2671 7.23508L69.8039 7.42344L69.8273 7.48095L69.864 7.53098L70.2671 7.23508ZM10.5 11C10.5 5.75329 14.7533 1.5 20 1.5V0.5C14.201 0.5 9.5 5.20101 9.5 11H10.5ZM10.5 85V11H9.5V85H10.5ZM20 94.5C14.7533 94.5 10.5 90.2467 10.5 85H9.5C9.5 90.799 14.201 95.5 20 95.5V94.5ZM61 94.5H20V95.5H61V94.5ZM70.5 85C70.5 90.2467 66.2467 94.5 61 94.5V95.5C66.799 95.5 71.5 90.799 71.5 85H70.5ZM81 94.5C75.7533 94.5 71.5 90.2467 71.5 85H70.5C70.5 90.799 75.201 95.5 81 95.5V94.5ZM154 94.5H81V95.5H154V94.5ZM163.5 85C163.5 90.2467 159.247 94.5 154 94.5V95.5C159.799 95.5 164.5 90.799 164.5 85H163.5ZM163.5 22V85H164.5V22H163.5ZM154 12.5C159.247 12.5 163.5 16.7533 163.5 22H164.5C164.5 16.201 159.799 11.5 154 11.5V12.5ZM82 12.5H154V11.5H82V12.5ZM81 12.5H82V11.5H81V12.5ZM76.5643 12.5H81V11.5H76.5643V12.5ZM76.6849 11.5147C75.8222 11.3004 74.9662 10.9966 74.2572 10.5713L73.7428 11.4287C74.567 11.9233 75.5263 12.2573 76.4438 12.4853L76.6849 11.5147ZM74.2572 10.5713C72.8567 9.73094 71.5916 8.19433 70.6701 6.93918L69.864 7.53098C70.7894 8.79147 72.1552 10.4762 73.7428 11.4287L74.2572 10.5713ZM61 1.5C64.9807 1.5 68.3907 3.94847 69.8039 7.42344L70.7302 7.04672C69.1691 3.20793 65.4014 0.5 61 0.5V1.5ZM20 1.5H61V0.5H20V1.5Z" fill="#D9D9D9"/>
<path d="M1.3312 53.1821C0.622936 47.2327 5.26962 42 11.2611 42H162.739C168.73 42 173.377 47.2327 172.669 53.1821L165.05 117.182C164.451 122.212 160.185 126 155.12 126H18.8801C13.8145 126 9.54907 122.212 8.95025 117.182L1.3312 53.1821Z" fill="white"/>
<mask id="mask0_397_514" style="mask-type:alpha" maskUnits="userSpaceOnUse" x="50" y="55" width="73" height="59">
<rect x="50" y="55" width="73" height="59" fill="#D9D9D9"/>
</mask>
<g mask="url(#mask0_397_514)">
<path d="M86.5 109.083C82.3431 109.083 78.4143 108.438 74.7136 107.147C71.0129 105.857 67.7811 104.095 65.0183 101.862C62.2554 99.629 60.0756 97.017 58.4787 94.026C56.8818 91.035 56.0834 87.8597 56.0834 84.5C56.0834 81.0993 56.8818 77.9137 58.4787 74.9432C60.0756 71.9727 62.2554 69.371 65.0183 67.138C67.7811 64.905 71.0129 63.1432 74.7136 61.8526C78.4143 60.5619 82.3431 59.9166 86.5 59.9166C90.7077 59.9166 94.6492 60.5619 98.3245 61.8526C102 63.1432 105.219 64.905 107.982 67.138C110.745 69.371 112.925 71.9727 114.521 74.9432C116.118 77.9137 116.917 81.0993 116.917 84.5C116.917 87.8597 116.118 91.035 114.521 94.026C112.925 97.017 110.745 99.629 107.982 101.862C105.219 104.095 102 105.857 98.3245 107.147C94.6492 108.438 90.7077 109.083 86.5 109.083ZM86.5 104.044C87.8181 102.569 88.9587 101.032 89.9219 99.4343C90.8851 97.8364 91.6709 96.1361 92.2792 94.3333H80.7209C81.3292 96.1361 82.115 97.8364 83.0782 99.4343C84.0414 101.032 85.182 102.569 86.5 104.044ZM78.5917 103.06C77.6792 101.708 76.8808 100.305 76.1964 98.8505C75.512 97.396 74.9417 95.8902 74.4855 94.3333H65.5125C66.9827 96.3819 68.8204 98.1642 71.0256 99.6802C73.2308 101.196 75.7528 102.323 78.5917 103.06ZM94.4084 103.06C97.2473 102.323 99.7693 101.196 101.975 99.6802C104.18 98.1642 106.017 96.3819 107.488 94.3333H98.5146C98.0584 95.8902 97.4881 97.396 96.8037 98.8505C96.1193 100.305 95.3209 101.708 94.4084 103.06ZM62.9271 89.4166H73.2688C73.1167 88.5972 73.0026 87.788 72.9266 86.989C72.8506 86.1901 72.8125 85.3604 72.8125 84.5C72.8125 83.6395 72.8506 82.8099 72.9266 82.0109C73.0026 81.2119 73.1167 80.4027 73.2688 79.5833H62.9271C62.6737 80.4027 62.4835 81.2119 62.3568 82.0109C62.2301 82.8099 62.1667 83.6395 62.1667 84.5C62.1667 85.3604 62.2301 86.1901 62.3568 86.989C62.4835 87.788 62.6737 88.5972 62.9271 89.4166ZM79.3521 89.4166H93.648C93.8 88.5972 93.9141 87.788 93.9901 86.989C94.0662 86.1901 94.1042 85.3604 94.1042 84.5C94.1042 83.6395 94.0662 82.8099 93.9901 82.0109C93.9141 81.2119 93.8 80.4027 93.648 79.5833H79.3521C79.2 80.4027 79.086 81.2119 79.0099 82.0109C78.9339 82.8099 78.8959 83.6395 78.8959 84.5C78.8959 85.3604 78.9339 86.1901 79.0099 86.989C79.086 87.788 79.2 88.5972 79.3521 89.4166ZM99.7313 89.4166H110.073C110.326 88.5972 110.517 87.788 110.643 86.989C110.77 86.1901 110.833 85.3604 110.833 84.5C110.833 83.6395 110.77 82.8099 110.643 82.0109C110.517 81.2119 110.326 80.4027 110.073 79.5833H99.7313C99.8834 80.4027 99.9974 81.2119 100.073 82.0109C100.15 82.8099 100.188 83.6395 100.188 84.5C100.188 85.3604 100.15 86.1901 100.073 86.989C99.9974 87.788 99.8834 88.5972 99.7313 89.4166ZM98.5146 74.6666H107.488C106.017 72.618 104.18 70.8357 101.975 69.3198C99.7693 67.8038 97.2473 66.677 94.4084 65.9395C95.3209 67.2916 96.1193 68.6949 96.8037 70.1494C97.4881 71.604 98.0584 73.1097 98.5146 74.6666ZM80.7209 74.6666H92.2792C91.6709 72.8638 90.8851 71.1635 89.9219 69.5656C88.9587 67.9677 87.8181 66.4312 86.5 64.9562C85.182 66.4312 84.0414 67.9677 83.0782 69.5656C82.115 71.1635 81.3292 72.8638 80.7209 74.6666ZM65.5125 74.6666H74.4855C74.9417 73.1097 75.512 71.604 76.1964 70.1494C76.8808 68.6949 77.6792 67.2916 78.5917 65.9395C75.7528 66.677 73.2308 67.8038 71.0256 69.3198C68.8204 70.8357 66.9827 72.618 65.5125 74.6666Z" fill="#ECECEC"/>
</g>
<defs>
<linearGradient id="paint0_linear_397_514" x1="87" y1="1" x2="87" y2="95" gradientUnits="userSpaceOnUse">
<stop stop-color="white"/>
<stop offset="0.432292" stop-color="#B5B5B5"/>
</linearGradient>
</defs>
</svg>
