<svg width="156" height="126" viewBox="0 0 156 126" fill="none" xmlns="http://www.w3.org/2000/svg">
<path fill-rule="evenodd" clip-rule="evenodd" d="M11 1C5.47715 1 1 5.47715 1 11V85C1 90.5229 5.47715 95 11 95H52C57.5228 95 62 90.5229 62 85C62 90.5229 66.4772 95 72 95H145C150.523 95 155 90.5229 155 85V22C155 16.4772 150.523 12 145 12H73H72H67.5643C66.6742 11.7789 65.7666 11.46 65 11C63.506 10.1036 62.1905 8.4929 61.2671 7.23508C59.7799 3.5782 56.191 1 52 1H11Z" fill="url(#paint0_linear_397_472)"/>
<path d="M67.5643 12L67.4438 12.4853L67.5032 12.5H67.5643V12ZM65 11L65.2572 10.5713L65.2572 10.5713L65 11ZM61.2671 7.23508L60.8039 7.42344L60.8273 7.48095L60.864 7.53098L61.2671 7.23508ZM1.5 11C1.5 5.75329 5.75329 1.5 11 1.5V0.5C5.20101 0.5 0.5 5.20101 0.5 11H1.5ZM1.5 85V11H0.5V85H1.5ZM11 94.5C5.75329 94.5 1.5 90.2467 1.5 85H0.5C0.5 90.799 5.20101 95.5 11 95.5V94.5ZM52 94.5H11V95.5H52V94.5ZM61.5 85C61.5 90.2467 57.2467 94.5 52 94.5V95.5C57.799 95.5 62.5 90.799 62.5 85H61.5ZM72 94.5C66.7533 94.5 62.5 90.2467 62.5 85H61.5C61.5 90.799 66.201 95.5 72 95.5V94.5ZM145 94.5H72V95.5H145V94.5ZM154.5 85C154.5 90.2467 150.247 94.5 145 94.5V95.5C150.799 95.5 155.5 90.799 155.5 85H154.5ZM154.5 22V85H155.5V22H154.5ZM145 12.5C150.247 12.5 154.5 16.7533 154.5 22H155.5C155.5 16.201 150.799 11.5 145 11.5V12.5ZM73 12.5H145V11.5H73V12.5ZM72 12.5H73V11.5H72V12.5ZM67.5643 12.5H72V11.5H67.5643V12.5ZM67.6849 11.5147C66.8222 11.3004 65.9662 10.9966 65.2572 10.5713L64.7428 11.4287C65.567 11.9233 66.5263 12.2573 67.4438 12.4853L67.6849 11.5147ZM65.2572 10.5713C63.8567 9.73094 62.5916 8.19433 61.6701 6.93918L60.864 7.53098C61.7894 8.79147 63.1552 10.4762 64.7428 11.4287L65.2572 10.5713ZM52 1.5C55.9807 1.5 59.3907 3.94847 60.8039 7.42344L61.7302 7.04672C60.1691 3.20793 56.4014 0.5 52 0.5V1.5ZM11 1.5H52V0.5H11V1.5Z" fill="#D9D9D9"/>
<rect x="1" y="23" width="154" height="103" rx="10" fill="white"/>
<mask id="mask0_397_472" style="mask-type:alpha" maskUnits="userSpaceOnUse" x="41" y="38" width="73" height="73">
<rect x="41" y="38" width="73" height="73" fill="#D9D9D9"/>
</mask>
<g mask="url(#mask0_397_472)">
<path d="M77.5 104.917C73.3431 104.917 69.4143 104.118 65.7136 102.521C62.0129 100.925 58.7811 98.7447 56.0183 95.9818C53.2554 93.219 51.0756 89.9872 49.4787 86.2865C47.8818 82.5858 47.0834 78.657 47.0834 74.5C47.0834 70.2924 47.8818 66.3509 49.4787 62.6756C51.0756 59.0002 53.2554 55.7811 56.0183 53.0183C58.7811 50.2554 62.0129 48.0756 65.7136 46.4787C69.4143 44.8818 73.3431 44.0834 77.5 44.0834C81.7077 44.0834 85.6492 44.8818 89.3245 46.4787C92.9999 48.0756 96.219 50.2554 98.9818 53.0183C101.745 55.7811 103.925 59.0002 105.521 62.6756C107.118 66.3509 107.917 70.2924 107.917 74.5C107.917 78.657 107.118 82.5858 105.521 86.2865C103.925 89.9872 101.745 93.219 98.9818 95.9818C96.219 98.7447 92.9999 100.925 89.3245 102.521C85.6492 104.118 81.7077 104.917 77.5 104.917ZM77.5 98.6813C78.8181 96.8563 79.9587 94.9552 80.9219 92.9782C81.8851 91.0011 82.6709 88.8973 83.2792 86.6667H71.7209C72.3292 88.8973 73.115 91.0011 74.0782 92.9782C75.0414 94.9552 76.182 96.8563 77.5 98.6813ZM69.5917 97.4646C68.6792 95.7917 67.8808 94.0554 67.1964 92.2558C66.512 90.4561 65.9417 88.5931 65.4855 86.6667H56.5125C57.9827 89.2014 59.8204 91.4066 62.0256 93.2823C64.2308 95.158 66.7528 96.5521 69.5917 97.4646ZM85.4084 97.4646C88.2473 96.5521 90.7693 95.158 92.9745 93.2823C95.1797 91.4066 97.0174 89.2014 98.4875 86.6667H89.5146C89.0584 88.5931 88.4881 90.4561 87.8037 92.2558C87.1193 94.0554 86.3209 95.7917 85.4084 97.4646ZM53.9271 80.5834H64.2688C64.1167 79.5695 64.0026 78.5683 63.9266 77.5797C63.8506 76.5912 63.8125 75.5646 63.8125 74.5C63.8125 73.4355 63.8506 72.4089 63.9266 71.4204C64.0026 70.4318 64.1167 69.4306 64.2688 68.4167H53.9271C53.6737 69.4306 53.4835 70.4318 53.3568 71.4204C53.2301 72.4089 53.1667 73.4355 53.1667 74.5C53.1667 75.5646 53.2301 76.5912 53.3568 77.5797C53.4835 78.5683 53.6737 79.5695 53.9271 80.5834ZM70.3521 80.5834H84.648C84.8 79.5695 84.9141 78.5683 84.9901 77.5797C85.0662 76.5912 85.1042 75.5646 85.1042 74.5C85.1042 73.4355 85.0662 72.4089 84.9901 71.4204C84.9141 70.4318 84.8 69.4306 84.648 68.4167H70.3521C70.2 69.4306 70.086 70.4318 70.0099 71.4204C69.9339 72.4089 69.8959 73.4355 69.8959 74.5C69.8959 75.5646 69.9339 76.5912 70.0099 77.5797C70.086 78.5683 70.2 79.5695 70.3521 80.5834ZM90.7313 80.5834H101.073C101.326 79.5695 101.517 78.5683 101.643 77.5797C101.77 76.5912 101.833 75.5646 101.833 74.5C101.833 73.4355 101.77 72.4089 101.643 71.4204C101.517 70.4318 101.326 69.4306 101.073 68.4167H90.7313C90.8834 69.4306 90.9974 70.4318 91.0735 71.4204C91.1495 72.4089 91.1875 73.4355 91.1875 74.5C91.1875 75.5646 91.1495 76.5912 91.0735 77.5797C90.9974 78.5683 90.8834 79.5695 90.7313 80.5834ZM89.5146 62.3334H98.4875C97.0174 59.7987 95.1797 57.5934 92.9745 55.7177C90.7693 53.8421 88.2473 52.448 85.4084 51.5355C86.3209 53.2084 87.1193 54.9447 87.8037 56.7443C88.4881 58.544 89.0584 60.407 89.5146 62.3334ZM71.7209 62.3334H83.2792C82.6709 60.1028 81.8851 57.999 80.9219 56.0219C79.9587 54.0448 78.8181 52.1438 77.5 50.3188C76.182 52.1438 75.0414 54.0448 74.0782 56.0219C73.115 57.999 72.3292 60.1028 71.7209 62.3334ZM56.5125 62.3334H65.4855C65.9417 60.407 66.512 58.544 67.1964 56.7443C67.8808 54.9447 68.6792 53.2084 69.5917 51.5355C66.7528 52.448 64.2308 53.8421 62.0256 55.7177C59.8204 57.5934 57.9827 59.7987 56.5125 62.3334Z" fill="#ECECEC"/>
</g>
<defs>
<linearGradient id="paint0_linear_397_472" x1="78" y1="1" x2="78" y2="95" gradientUnits="userSpaceOnUse">
<stop stop-color="white"/>
<stop offset="0.322917" stop-color="#B5B5B5"/>
</linearGradient>
</defs>
</svg>
