<svg width="174" height="126" viewBox="0 0 174 126" fill="none" xmlns="http://www.w3.org/2000/svg">
<path fill-rule="evenodd" clip-rule="evenodd" d="M20 1C14.4772 1 10 5.47715 10 11V85C10 90.5229 14.4772 95 20 95H61C66.5228 95 71 90.5229 71 85C71 90.5229 75.4772 95 81 95H154C159.523 95 164 90.5229 164 85V22C164 16.4772 159.523 12 154 12H82H81H76.5643C75.6742 11.7789 74.7666 11.46 74 11C72.506 10.1036 71.1905 8.4929 70.2671 7.23508C68.7799 3.5782 65.191 1 61 1H20Z" fill="url(#paint0_linear_397_494)"/>
<path d="M76.5643 12L76.4438 12.4853L76.5032 12.5H76.5643V12ZM74 11L74.2572 10.5713L74.2572 10.5713L74 11ZM70.2671 7.23508L69.8039 7.42344L69.8273 7.48095L69.864 7.53098L70.2671 7.23508ZM10.5 11C10.5 5.75329 14.7533 1.5 20 1.5V0.5C14.201 0.5 9.5 5.20101 9.5 11H10.5ZM10.5 85V11H9.5V85H10.5ZM20 94.5C14.7533 94.5 10.5 90.2467 10.5 85H9.5C9.5 90.799 14.201 95.5 20 95.5V94.5ZM61 94.5H20V95.5H61V94.5ZM70.5 85C70.5 90.2467 66.2467 94.5 61 94.5V95.5C66.799 95.5 71.5 90.799 71.5 85H70.5ZM81 94.5C75.7533 94.5 71.5 90.2467 71.5 85H70.5C70.5 90.799 75.201 95.5 81 95.5V94.5ZM154 94.5H81V95.5H154V94.5ZM163.5 85C163.5 90.2467 159.247 94.5 154 94.5V95.5C159.799 95.5 164.5 90.799 164.5 85H163.5ZM163.5 22V85H164.5V22H163.5ZM154 12.5C159.247 12.5 163.5 16.7533 163.5 22H164.5C164.5 16.201 159.799 11.5 154 11.5V12.5ZM82 12.5H154V11.5H82V12.5ZM81 12.5H82V11.5H81V12.5ZM76.5643 12.5H81V11.5H76.5643V12.5ZM76.6849 11.5147C75.8222 11.3004 74.9662 10.9966 74.2572 10.5713L73.7428 11.4287C74.567 11.9233 75.5263 12.2573 76.4438 12.4853L76.6849 11.5147ZM74.2572 10.5713C72.8567 9.73094 71.5916 8.19433 70.6701 6.93918L69.864 7.53098C70.7894 8.79147 72.1552 10.4762 73.7428 11.4287L74.2572 10.5713ZM61 1.5C64.9807 1.5 68.3907 3.94847 69.8039 7.42344L70.7302 7.04672C69.1691 3.20793 65.4014 0.5 61 0.5V1.5ZM20 1.5H61V0.5H20V1.5Z" fill="#D9D9D9"/>
<path d="M1.3312 53.1821C0.622936 47.2327 5.26962 42 11.2611 42H162.739C168.73 42 173.377 47.2327 172.669 53.1821L165.05 117.182C164.451 122.212 160.185 126 155.12 126H18.8801C13.8145 126 9.54907 122.212 8.95025 117.182L1.3312 53.1821Z" fill="white"/>
<mask id="mask0_397_494" style="mask-type:alpha" maskUnits="userSpaceOnUse" x="50" y="55" width="73" height="59">
<rect x="50" y="55" width="73" height="59" fill="#D9D9D9"/>
</mask>
<g mask="url(#mask0_397_494)">
<path d="M68.25 109.083C65.7153 109.083 63.5608 108.366 61.7865 106.932C60.0122 105.498 59.125 103.757 59.125 101.708V99.25C59.125 97.8979 59.7207 96.7404 60.912 95.7776C62.1033 94.8147 63.5354 94.3333 65.2083 94.3333H68.25V64.8333C68.25 63.4812 68.8457 62.3237 70.037 61.3609C71.2283 60.398 72.6604 59.9166 74.3333 59.9166H107.792C109.465 59.9166 110.897 60.398 112.088 61.3609C113.279 62.3237 113.875 63.4812 113.875 64.8333V101.708C113.875 103.757 112.988 105.498 111.214 106.932C109.439 108.366 107.285 109.083 104.75 109.083H68.25ZM104.75 104.167C105.612 104.167 106.334 103.931 106.917 103.46C107.5 102.989 107.792 102.405 107.792 101.708V64.8333H74.3333V94.3333H95.625C97.2979 94.3333 98.73 94.8147 99.9214 95.7776C101.113 96.7404 101.708 97.8979 101.708 99.25V101.708C101.708 102.405 102 102.989 102.583 103.46C103.166 103.931 103.888 104.167 104.75 104.167ZM80.4167 77.125C79.5549 77.125 78.8325 76.8894 78.2495 76.4182C77.6665 75.947 77.375 75.3632 77.375 74.6666C77.375 73.9701 77.6665 73.3862 78.2495 72.9151C78.8325 72.4439 79.5549 72.2083 80.4167 72.2083H101.708C102.57 72.2083 103.293 72.4439 103.876 72.9151C104.459 73.3862 104.75 73.9701 104.75 74.6666C104.75 75.3632 104.459 75.947 103.876 76.4182C103.293 76.8894 102.57 77.125 101.708 77.125H80.4167ZM80.4167 84.5C79.5549 84.5 78.8325 84.2644 78.2495 83.7932C77.6665 83.322 77.375 82.7382 77.375 82.0416C77.375 81.3451 77.6665 80.7612 78.2495 80.2901C78.8325 79.8189 79.5549 79.5833 80.4167 79.5833H101.708C102.57 79.5833 103.293 79.8189 103.876 80.2901C104.459 80.7612 104.75 81.3451 104.75 82.0416C104.75 82.7382 104.459 83.322 103.876 83.7932C103.293 84.2644 102.57 84.5 101.708 84.5H80.4167Z" fill="#ECECEC"/>
</g>
<defs>
<linearGradient id="paint0_linear_397_494" x1="87" y1="1" x2="87" y2="95" gradientUnits="userSpaceOnUse">
<stop stop-color="white"/>
<stop offset="0.432292" stop-color="#B5B5B5"/>
</linearGradient>
</defs>
</svg>
