<svg width="156" height="126" viewBox="0 0 156 126" fill="none" xmlns="http://www.w3.org/2000/svg">
<path fill-rule="evenodd" clip-rule="evenodd" d="M11 1C5.47715 1 1 5.47715 1 11V85C1 90.5229 5.47715 95 11 95H52C57.5228 95 62 90.5229 62 85C62 90.5229 66.4772 95 72 95H145C150.523 95 155 90.5229 155 85V22C155 16.4772 150.523 12 145 12H73H72H67.5643C66.6742 11.7789 65.7666 11.46 65 11C63.506 10.1036 62.1905 8.4929 61.2671 7.23508C59.7799 3.5782 56.191 1 52 1H11Z" fill="url(#paint0_linear_397_316)"/>
<path d="M67.5643 12L67.4438 12.4853L67.5032 12.5H67.5643V12ZM65 11L65.2572 10.5713L65.2572 10.5713L65 11ZM61.2671 7.23508L60.8039 7.42344L60.8273 7.48095L60.864 7.53098L61.2671 7.23508ZM1.5 11C1.5 5.75329 5.75329 1.5 11 1.5V0.5C5.20101 0.5 0.5 5.20101 0.5 11H1.5ZM1.5 85V11H0.5V85H1.5ZM11 94.5C5.75329 94.5 1.5 90.2467 1.5 85H0.5C0.5 90.799 5.20101 95.5 11 95.5V94.5ZM52 94.5H11V95.5H52V94.5ZM61.5 85C61.5 90.2467 57.2467 94.5 52 94.5V95.5C57.799 95.5 62.5 90.799 62.5 85H61.5ZM72 94.5C66.7533 94.5 62.5 90.2467 62.5 85H61.5C61.5 90.799 66.201 95.5 72 95.5V94.5ZM145 94.5H72V95.5H145V94.5ZM154.5 85C154.5 90.2467 150.247 94.5 145 94.5V95.5C150.799 95.5 155.5 90.799 155.5 85H154.5ZM154.5 22V85H155.5V22H154.5ZM145 12.5C150.247 12.5 154.5 16.7533 154.5 22H155.5C155.5 16.201 150.799 11.5 145 11.5V12.5ZM73 12.5H145V11.5H73V12.5ZM72 12.5H73V11.5H72V12.5ZM67.5643 12.5H72V11.5H67.5643V12.5ZM67.6849 11.5147C66.8222 11.3004 65.9662 10.9966 65.2572 10.5713L64.7428 11.4287C65.567 11.9233 66.5263 12.2573 67.4438 12.4853L67.6849 11.5147ZM65.2572 10.5713C63.8567 9.73094 62.5916 8.19433 61.6701 6.93918L60.864 7.53098C61.7894 8.79147 63.1552 10.4762 64.7428 11.4287L65.2572 10.5713ZM52 1.5C55.9807 1.5 59.3907 3.94847 60.8039 7.42344L61.7302 7.04672C60.1691 3.20793 56.4014 0.5 52 0.5V1.5ZM11 1.5H52V0.5H11V1.5Z" fill="#D9D9D9"/>
<rect x="1" y="23" width="154" height="103" rx="10" fill="white"/>
<mask id="mask0_397_316" style="mask-type:alpha" maskUnits="userSpaceOnUse" x="41" y="38" width="73" height="73">
<rect x="41" y="38" width="73" height="73" fill="#D9D9D9"/>
</mask>
<g mask="url(#mask0_397_316)">
<path d="M77.5 89.7084C78.3618 89.7084 79.0842 89.4169 79.6672 88.8339C80.2502 88.2509 80.5417 87.5285 80.5417 86.6667V74.5C80.5417 73.6382 80.2502 72.9158 79.6672 72.3329C79.0842 71.7499 78.3618 71.4584 77.5 71.4584C76.6382 71.4584 75.9158 71.7499 75.3329 72.3329C74.7499 72.9158 74.4584 73.6382 74.4584 74.5V86.6667C74.4584 87.5285 74.7499 88.2509 75.3329 88.8339C75.9158 89.4169 76.6382 89.7084 77.5 89.7084ZM77.5 65.375C78.3618 65.375 79.0842 65.0835 79.6672 64.5006C80.2502 63.9176 80.5417 63.1952 80.5417 62.3334C80.5417 61.4716 80.2502 60.7492 79.6672 60.1662C79.0842 59.5832 78.3618 59.2917 77.5 59.2917C76.6382 59.2917 75.9158 59.5832 75.3329 60.1662C74.7499 60.7492 74.4584 61.4716 74.4584 62.3334C74.4584 63.1952 74.7499 63.9176 75.3329 64.5006C75.9158 65.0835 76.6382 65.375 77.5 65.375ZM77.5 104.917C73.2924 104.917 69.3382 104.118 65.6375 102.521C61.9368 100.925 58.7177 98.7573 55.9802 96.0198C53.2427 93.2823 51.0756 90.0632 49.4787 86.3625C47.8818 82.6618 47.0834 78.7077 47.0834 74.5C47.0834 70.2924 47.8818 66.3382 49.4787 62.6375C51.0756 58.9368 53.2427 55.7177 55.9802 52.9802C58.7177 50.2427 61.9368 48.0756 65.6375 46.4787C69.3382 44.8818 73.2924 44.0834 77.5 44.0834C81.7077 44.0834 85.6618 44.8818 89.3625 46.4787C93.0632 48.0756 96.2823 50.2427 99.0198 52.9802C101.757 55.7177 103.925 58.9368 105.521 62.6375C107.118 66.3382 107.917 70.2924 107.917 74.5C107.917 78.7077 107.118 82.6618 105.521 86.3625C103.925 90.0632 101.757 93.2823 99.0198 96.0198C96.2823 98.7573 93.0632 100.925 89.3625 102.521C85.6618 104.118 81.7077 104.917 77.5 104.917Z" fill="#ECECEC"/>
</g>
<defs>
<linearGradient id="paint0_linear_397_316" x1="78" y1="1" x2="78" y2="95" gradientUnits="userSpaceOnUse">
<stop stop-color="white"/>
<stop offset="0.322917" stop-color="#B5B5B5"/>
</linearGradient>
</defs>
</svg>
