<svg width="156" height="126" viewBox="0 0 156 126" fill="none" xmlns="http://www.w3.org/2000/svg">
<path fill-rule="evenodd" clip-rule="evenodd" d="M11 1C5.47715 1 1 5.47715 1 11V85C1 90.5229 5.47715 95 11 95H52C57.5228 95 62 90.5229 62 85C62 90.5229 66.4772 95 72 95H145C150.523 95 155 90.5229 155 85V22C155 16.4772 150.523 12 145 12H73H72H67.5643C66.6742 11.7789 65.7666 11.46 65 11C63.506 10.1036 62.1905 8.4929 61.2671 7.23508C59.7799 3.5782 56.191 1 52 1H11Z" fill="url(#paint0_linear_136_207)"/>
<path d="M67.5643 12L67.4438 12.4853L67.5032 12.5H67.5643V12ZM65 11L65.2572 10.5713L65.2572 10.5713L65 11ZM61.2671 7.23508L60.8039 7.42344L60.8273 7.48095L60.864 7.53098L61.2671 7.23508ZM1.5 11C1.5 5.75329 5.75329 1.5 11 1.5V0.5C5.20101 0.5 0.5 5.20101 0.5 11H1.5ZM1.5 85V11H0.5V85H1.5ZM11 94.5C5.75329 94.5 1.5 90.2467 1.5 85H0.5C0.5 90.799 5.20101 95.5 11 95.5V94.5ZM52 94.5H11V95.5H52V94.5ZM61.5 85C61.5 90.2467 57.2467 94.5 52 94.5V95.5C57.799 95.5 62.5 90.799 62.5 85H61.5ZM72 94.5C66.7533 94.5 62.5 90.2467 62.5 85H61.5C61.5 90.799 66.201 95.5 72 95.5V94.5ZM145 94.5H72V95.5H145V94.5ZM154.5 85C154.5 90.2467 150.247 94.5 145 94.5V95.5C150.799 95.5 155.5 90.799 155.5 85H154.5ZM154.5 22V85H155.5V22H154.5ZM145 12.5C150.247 12.5 154.5 16.7533 154.5 22H155.5C155.5 16.201 150.799 11.5 145 11.5V12.5ZM73 12.5H145V11.5H73V12.5ZM72 12.5H73V11.5H72V12.5ZM67.5643 12.5H72V11.5H67.5643V12.5ZM67.6849 11.5147C66.8222 11.3004 65.9662 10.9966 65.2572 10.5713L64.7428 11.4287C65.567 11.9233 66.5263 12.2573 67.4438 12.4853L67.6849 11.5147ZM65.2572 10.5713C63.8567 9.73094 62.5916 8.19433 61.6701 6.93918L60.864 7.53098C61.7894 8.79147 63.1552 10.4762 64.7428 11.4287L65.2572 10.5713ZM52 1.5C55.9807 1.5 59.3907 3.94847 60.8039 7.42344L61.7302 7.04672C60.1691 3.20793 56.4014 0.5 52 0.5V1.5ZM11 1.5H52V0.5H11V1.5Z" fill="#D9D9D9"/>
<rect x="1" y="23" width="154" height="103" rx="10" fill="white"/>
<defs>
<linearGradient id="paint0_linear_136_207" x1="78" y1="1" x2="78" y2="95" gradientUnits="userSpaceOnUse">
<stop stop-color="white"/>
<stop offset="0.322917" stop-color="#B5B5B5"/>
</linearGradient>
</defs>
</svg>
