<svg width="50" height="50" viewBox="0 0 50 50" fill="none" xmlns="http://www.w3.org/2000/svg">
<mask id="mask0_261_1206" style="mask-type:alpha" maskUnits="userSpaceOnUse" x="0" y="0" width="50" height="50">
<rect width="50" height="50" fill="#D9D9D9"/>
</mask>
<g mask="url(#mask0_261_1206)">
<path d="M12.4998 43.75C10.9373 43.75 9.3922 43.3681 7.86442 42.6042C6.33664 41.8403 5.104 40.8334 4.1665 39.5834C5.06928 39.5834 5.98942 39.2275 6.92692 38.5157C7.86442 37.8038 8.33317 36.7709 8.33317 35.4167C8.33317 33.6806 8.94081 32.2049 10.1561 30.9896C11.3714 29.7743 12.8471 29.1667 14.5832 29.1667C16.3193 29.1667 17.795 29.7743 19.0103 30.9896C20.2255 32.2049 20.8332 33.6806 20.8332 35.4167C20.8332 37.7084 20.0172 39.6702 18.3853 41.3021C16.7533 42.9341 14.7915 43.75 12.4998 43.75ZM12.4998 39.5834C13.6457 39.5834 14.6266 39.1754 15.4425 38.3594C16.2585 37.5434 16.6665 36.5625 16.6665 35.4167C16.6665 34.8264 16.4669 34.3316 16.0675 33.9323C15.6682 33.533 15.1734 33.3334 14.5832 33.3334C13.9929 33.3334 13.4981 33.533 13.0988 33.9323C12.6995 34.3316 12.4998 34.8264 12.4998 35.4167C12.4998 36.2153 12.4044 36.9445 12.2134 37.6042C12.0224 38.2639 11.7707 38.8889 11.4582 39.4792C11.6318 39.5486 11.8054 39.5834 11.979 39.5834H12.4998ZM24.479 31.25L18.7498 25.5209L37.3957 6.87502C37.7776 6.49308 38.255 6.29343 38.828 6.27607C39.4009 6.2587 39.8957 6.45836 40.3123 6.87502L43.1248 9.68752C43.5415 10.1042 43.7498 10.5903 43.7498 11.1459C43.7498 11.7014 43.5415 12.1875 43.1248 12.6042L24.479 31.25Z" fill="white" fill-opacity="0.6"/>
</g>
</svg>
