<svg width="50" height="50" viewBox="0 0 50 50" fill="none" xmlns="http://www.w3.org/2000/svg">
<mask id="mask0_50_727" style="mask-type:alpha" maskUnits="userSpaceOnUse" x="0" y="0" width="50" height="50">
<rect width="50" height="50" fill="#D9D9D9"/>
</mask>
<g mask="url(#mask0_50_727)">
<path d="M12.6042 37.0312C11.9098 36.6493 11.3716 36.1371 10.9897 35.4948C10.6077 34.8524 10.4167 34.1319 10.4167 33.3333V23.3333L5.41675 20.5729C5.0348 20.3646 4.75703 20.1042 4.58341 19.7917C4.4098 19.4792 4.323 19.1319 4.323 18.75C4.323 18.368 4.4098 18.0208 4.58341 17.7083C4.75703 17.3958 5.0348 17.1354 5.41675 16.9271L23.0209 7.34374C23.3334 7.17013 23.6546 7.03992 23.9845 6.95311C24.3143 6.86631 24.6529 6.82291 25.0001 6.82291C25.3473 6.82291 25.6859 6.86631 26.0157 6.95311C26.3456 7.03992 26.6668 7.17013 26.9793 7.34374L46.823 18.1771C47.1702 18.3507 47.4393 18.6024 47.6303 18.9323C47.8213 19.2621 47.9168 19.618 47.9168 20V33.3333C47.9168 33.9236 47.7171 34.4184 47.3178 34.8177C46.9185 35.217 46.4237 35.4167 45.8334 35.4167C45.2431 35.4167 44.7484 35.217 44.349 34.8177C43.9497 34.4184 43.7501 33.9236 43.7501 33.3333V21.0417L39.5834 23.3333V33.3333C39.5834 34.1319 39.3924 34.8524 39.0105 35.4948C38.6286 36.1371 38.0904 36.6493 37.3959 37.0312L26.9793 42.6562C26.6668 42.8299 26.3456 42.9601 26.0157 43.0469C25.6859 43.1337 25.3473 43.1771 25.0001 43.1771C24.6529 43.1771 24.3143 43.1337 23.9845 43.0469C23.6546 42.9601 23.3334 42.8299 23.0209 42.6562L12.6042 37.0312ZM25.0001 26.4583L39.2709 18.75L25.0001 11.0417L10.7292 18.75L25.0001 26.4583ZM25.0001 39.0104L35.4168 33.3854V25.5208L27.0313 30.1562C26.7188 30.3298 26.389 30.4601 26.0418 30.5469C25.6945 30.6337 25.3473 30.6771 25.0001 30.6771C24.6529 30.6771 24.3056 30.6337 23.9584 30.5469C23.6112 30.4601 23.2813 30.3298 22.9688 30.1562L14.5834 25.5208V33.3854L25.0001 39.0104Z" fill="white"/>
</g>
</svg>
