<svg width="73" height="59" viewBox="0 0 73 59" fill="none" xmlns="http://www.w3.org/2000/svg">
<mask id="mask0_50_268" style="mask-type:alpha" maskUnits="userSpaceOnUse" x="0" y="0" width="73" height="59">
<rect width="73" height="59" fill="#D9D9D9"/>
</mask>
<g mask="url(#mask0_50_268)">
<path d="M36.5 41.7916C37.3618 41.7916 38.0842 41.556 38.6672 41.0849C39.2502 40.6137 39.5417 40.0298 39.5417 39.3333V29.5C39.5417 28.8034 39.2502 28.2196 38.6672 27.7484C38.0842 27.2772 37.3618 27.0416 36.5 27.0416C35.6382 27.0416 34.9158 27.2772 34.3329 27.7484C33.7499 28.2196 33.4584 28.8034 33.4584 29.5V39.3333C33.4584 40.0298 33.7499 40.6137 34.3329 41.0849C34.9158 41.556 35.6382 41.7916 36.5 41.7916ZM36.5 22.125C37.3618 22.125 38.0842 21.8894 38.6672 21.4182C39.2502 20.947 39.5417 20.3632 39.5417 19.6666C39.5417 18.9701 39.2502 18.3862 38.6672 17.9151C38.0842 17.4439 37.3618 17.2083 36.5 17.2083C35.6382 17.2083 34.9158 17.4439 34.3329 17.9151C33.7499 18.3862 33.4584 18.9701 33.4584 19.6666C33.4584 20.3632 33.7499 20.947 34.3329 21.4182C34.9158 21.8894 35.6382 22.125 36.5 22.125ZM36.5 54.0833C32.2924 54.0833 28.3382 53.438 24.6375 52.1474C20.9368 50.8567 17.7177 49.1052 14.9802 46.8927C12.2427 44.6802 10.0756 42.0784 8.47869 39.0875C6.88181 36.0965 6.08337 32.9007 6.08337 29.5C6.08337 26.0993 6.88181 22.9034 8.47869 19.9125C10.0756 16.9215 12.2427 14.3198 14.9802 12.1073C17.7177 9.89475 20.9368 8.14319 24.6375 6.85256C28.3382 5.56194 32.2924 4.91663 36.5 4.91663C40.7077 4.91663 44.6618 5.56194 48.3625 6.85256C52.0632 8.14319 55.2823 9.89475 58.0198 12.1073C60.7573 14.3198 62.9245 16.9215 64.5214 19.9125C66.1183 22.9034 66.9167 26.0993 66.9167 29.5C66.9167 32.9007 66.1183 36.0965 64.5214 39.0875C62.9245 42.0784 60.7573 44.6802 58.0198 46.8927C55.2823 49.1052 52.0632 50.8567 48.3625 52.1474C44.6618 53.438 40.7077 54.0833 36.5 54.0833Z" fill="#ECECEC"/>
</g>
</svg>
