<svg width="73" height="73" viewBox="0 0 73 73" fill="none" xmlns="http://www.w3.org/2000/svg">
<mask id="mask0_50_496" style="mask-type:alpha" maskUnits="userSpaceOnUse" x="0" y="0" width="73" height="73">
<rect width="73" height="73" fill="#D9D9D9"/>
</mask>
<g mask="url(#mask0_50_496)">
<path d="M18.25 66.9166C15.7153 66.9166 13.5608 66.0295 11.7865 64.2552C10.0122 62.4809 9.125 60.3264 9.125 57.7916V54.75C9.125 53.0771 9.72066 51.6449 10.912 50.4536C12.1033 49.2623 13.5354 48.6666 15.2083 48.6666H18.25V12.1666C18.25 10.4937 18.8457 9.06161 20.037 7.87029C21.2283 6.67897 22.6604 6.08331 24.3333 6.08331H57.7917C59.4646 6.08331 60.8967 6.67897 62.088 7.87029C63.2793 9.06161 63.875 10.4937 63.875 12.1666V57.7916C63.875 60.3264 62.9879 62.4809 61.2135 64.2552C59.4392 66.0295 57.2847 66.9166 54.75 66.9166H18.25ZM54.75 60.8333C55.6118 60.8333 56.3342 60.5418 56.9172 59.9588C57.5002 59.3758 57.7917 58.6535 57.7917 57.7916V12.1666H24.3333V48.6666H45.625C47.2979 48.6666 48.73 49.2623 49.9214 50.4536C51.1127 51.6449 51.7083 53.0771 51.7083 54.75V57.7916C51.7083 58.6535 51.9998 59.3758 52.5828 59.9588C53.1658 60.5418 53.8882 60.8333 54.75 60.8333ZM30.4167 27.375C29.5549 27.375 28.8325 27.0835 28.2495 26.5005C27.6665 25.9175 27.375 25.1951 27.375 24.3333C27.375 23.4715 27.6665 22.7491 28.2495 22.1661C28.8325 21.5831 29.5549 21.2916 30.4167 21.2916H51.7083C52.5701 21.2916 53.2925 21.5831 53.8755 22.1661C54.4585 22.7491 54.75 23.4715 54.75 24.3333C54.75 25.1951 54.4585 25.9175 53.8755 26.5005C53.2925 27.0835 52.5701 27.375 51.7083 27.375H30.4167ZM30.4167 36.5C29.5549 36.5 28.8325 36.2085 28.2495 35.6255C27.6665 35.0425 27.375 34.3201 27.375 33.4583C27.375 32.5965 27.6665 31.8741 28.2495 31.2911C28.8325 30.7081 29.5549 30.4166 30.4167 30.4166H51.7083C52.5701 30.4166 53.2925 30.7081 53.8755 31.2911C54.4585 31.8741 54.75 32.5965 54.75 33.4583C54.75 34.3201 54.4585 35.0425 53.8755 35.6255C53.2925 36.2085 52.5701 36.5 51.7083 36.5H30.4167Z" fill="#ECECEC"/>
</g>
</svg>
