<svg width="73" height="59" viewBox="0 0 73 59" fill="none" xmlns="http://www.w3.org/2000/svg">
<mask id="mask0_50_499" style="mask-type:alpha" maskUnits="userSpaceOnUse" x="0" y="0" width="73" height="59">
<rect width="73" height="59" fill="#D9D9D9"/>
</mask>
<g mask="url(#mask0_50_499)">
<path d="M18.25 54.0833C15.7153 54.0833 13.5608 53.3663 11.7865 51.9323C10.0122 50.4982 9.125 48.7569 9.125 46.7083V44.25C9.125 42.8979 9.72066 41.7404 10.912 40.7776C12.1033 39.8147 13.5354 39.3333 15.2083 39.3333H18.25V9.83329C18.25 8.48121 18.8457 7.32374 20.037 6.3609C21.2283 5.39805 22.6604 4.91663 24.3333 4.91663H57.7917C59.4646 4.91663 60.8967 5.39805 62.088 6.3609C63.2793 7.32374 63.875 8.48121 63.875 9.83329V46.7083C63.875 48.7569 62.9879 50.4982 61.2135 51.9323C59.4392 53.3663 57.2847 54.0833 54.75 54.0833H18.25ZM54.75 49.1666C55.6118 49.1666 56.3342 48.931 56.9172 48.4599C57.5002 47.9887 57.7917 47.4048 57.7917 46.7083V9.83329H24.3333V39.3333H45.625C47.2979 39.3333 48.73 39.8147 49.9214 40.7776C51.1127 41.7404 51.7083 42.8979 51.7083 44.25V46.7083C51.7083 47.4048 51.9998 47.9887 52.5828 48.4599C53.1658 48.931 53.8882 49.1666 54.75 49.1666ZM30.4167 22.125C29.5549 22.125 28.8325 21.8894 28.2495 21.4182C27.6665 20.947 27.375 20.3632 27.375 19.6666C27.375 18.9701 27.6665 18.3862 28.2495 17.9151C28.8325 17.4439 29.5549 17.2083 30.4167 17.2083H51.7083C52.5701 17.2083 53.2925 17.4439 53.8755 17.9151C54.4585 18.3862 54.75 18.9701 54.75 19.6666C54.75 20.3632 54.4585 20.947 53.8755 21.4182C53.2925 21.8894 52.5701 22.125 51.7083 22.125H30.4167ZM30.4167 29.5C29.5549 29.5 28.8325 29.2644 28.2495 28.7932C27.6665 28.322 27.375 27.7382 27.375 27.0416C27.375 26.3451 27.6665 25.7612 28.2495 25.2901C28.8325 24.8189 29.5549 24.5833 30.4167 24.5833H51.7083C52.5701 24.5833 53.2925 24.8189 53.8755 25.2901C54.4585 25.7612 54.75 26.3451 54.75 27.0416C54.75 27.7382 54.4585 28.322 53.8755 28.7932C53.2925 29.2644 52.5701 29.5 51.7083 29.5H30.4167Z" fill="#ECECEC"/>
</g>
</svg>
