<svg width="50" height="50" viewBox="0 0 50 50" fill="none" xmlns="http://www.w3.org/2000/svg">
    <mask id="mask0_282_67" style="mask-type:alpha" maskUnits="userSpaceOnUse" x="0" y="0"
        width="50" height="50">
        <rect width="50" height="50" fill="#D9D9D9" />
    </mask>
    <g mask="url(#mask0_282_67)">
        <path
            d="M21.9789 37.9167L32.7602 25H24.4269L25.9373 13.1771L16.3019 27.0833H23.5414L21.9789 37.9167ZM18.7498 31.25H12.2914C11.4581 31.25 10.8418 30.8767 10.4425 30.1302C10.0432 29.3837 10.0866 28.6632 10.5727 27.9687L26.1456 5.57291C26.4928 5.0868 26.9442 4.74826 27.4998 4.55729C28.0553 4.36632 28.6282 4.375 29.2185 4.58333C29.8088 4.79166 30.2428 5.15625 30.5206 5.67708C30.7984 6.19791 30.9026 6.75347 30.8331 7.34375L29.1664 20.8333H37.2394C38.1421 20.8333 38.7758 21.2326 39.1404 22.0312C39.505 22.8299 39.3921 23.5764 38.8019 24.2708L21.6664 44.7917C21.2845 45.2431 20.8157 45.5382 20.2602 45.6771C19.7046 45.816 19.1664 45.7639 18.6456 45.5208C18.1248 45.2778 17.7168 44.9045 17.4216 44.401C17.1265 43.8976 17.0137 43.3507 17.0831 42.7604L18.7498 31.25Z"
            fill="white" />
    </g>
</svg>