<svg width="81" height="88" viewBox="0 0 81 88" fill="none" xmlns="http://www.w3.org/2000/svg">
<path opacity="0.97" d="M8.28328 0H1.66394C0.744971 0 0 0.740957 0 1.65497V53.7463C0 54.6604 0.744971 55.4013 1.66394 55.4013H8.28328C9.20224 55.4013 9.94721 54.6604 9.94721 53.7463V1.65497C9.94721 0.740957 9.20224 0 8.28328 0Z" fill="white"/>
<path d="M43.2833 0H36.6639C35.745 0 35 0.740957 35 1.65497V85.449C35 86.363 35.745 87.1039 36.6639 87.1039H43.2833C44.2022 87.1039 44.9472 86.363 44.9472 85.449V1.65497C44.9472 0.740957 44.2022 0 43.2833 0Z" fill="white"/>
<path d="M78.5153 31.7014H71.8959C70.977 31.7014 70.232 32.4424 70.232 33.3564V85.4478C70.232 86.3618 70.977 87.1027 71.8959 87.1027H78.5153C79.4342 87.1027 80.1792 86.3618 80.1792 85.4478V33.3564C80.1792 32.4424 79.4342 31.7014 78.5153 31.7014Z" fill="white"/>
<path d="M50.2528 49.0605V57.7909C50.2528 58.2301 50.4289 58.6517 50.7413 58.9624L56.386 64.5708C57.0365 65.2167 58.091 65.2167 58.7404 64.5708L64.4297 58.9121C64.742 58.6015 64.917 58.1798 64.917 57.7407V49.0605C64.917 47.6438 63.2448 46.8812 62.1645 47.805L58.6711 50.7973C58.0464 51.3322 57.1222 51.3322 56.4975 50.7973L53.0041 47.805C51.9249 46.88 50.2516 47.6427 50.2516 49.0605H50.2528Z" fill="white"/>
<path d="M15.2622 18.3881V26.7365C15.2622 27.1757 15.4372 27.5961 15.7495 27.9068L27.0765 39.1728C28.1251 40.2157 29.9171 39.4764 29.9171 38.0025V29.654C29.9171 29.2149 29.7421 28.7944 29.4297 28.4838L18.1028 17.2178C17.0541 16.1748 15.2622 16.9141 15.2622 18.3881Z" fill="white"/>
</svg>
