<svg width="156" height="126" viewBox="0 0 156 126" fill="none" xmlns="http://www.w3.org/2000/svg">
<path fill-rule="evenodd" clip-rule="evenodd" d="M11 1C5.47715 1 1 5.47715 1 11V85C1 90.5229 5.47715 95 11 95H52C57.5228 95 62 90.5229 62 85C62 90.5229 66.4772 95 72 95H145C150.523 95 155 90.5229 155 85V22C155 16.4772 150.523 12 145 12H73H72H67.5643C66.6742 11.7789 65.7666 11.46 65 11C63.506 10.1036 62.1905 8.4929 61.2671 7.23508C59.7799 3.5782 56.191 1 52 1H11Z" fill="url(#paint0_linear_397_433)"/>
<path d="M67.5643 12L67.4438 12.4853L67.5032 12.5H67.5643V12ZM65 11L65.2572 10.5713L65.2572 10.5713L65 11ZM61.2671 7.23508L60.8039 7.42344L60.8273 7.48095L60.864 7.53098L61.2671 7.23508ZM1.5 11C1.5 5.75329 5.75329 1.5 11 1.5V0.5C5.20101 0.5 0.5 5.20101 0.5 11H1.5ZM1.5 85V11H0.5V85H1.5ZM11 94.5C5.75329 94.5 1.5 90.2467 1.5 85H0.5C0.5 90.799 5.20101 95.5 11 95.5V94.5ZM52 94.5H11V95.5H52V94.5ZM61.5 85C61.5 90.2467 57.2467 94.5 52 94.5V95.5C57.799 95.5 62.5 90.799 62.5 85H61.5ZM72 94.5C66.7533 94.5 62.5 90.2467 62.5 85H61.5C61.5 90.799 66.201 95.5 72 95.5V94.5ZM145 94.5H72V95.5H145V94.5ZM154.5 85C154.5 90.2467 150.247 94.5 145 94.5V95.5C150.799 95.5 155.5 90.799 155.5 85H154.5ZM154.5 22V85H155.5V22H154.5ZM145 12.5C150.247 12.5 154.5 16.7533 154.5 22H155.5C155.5 16.201 150.799 11.5 145 11.5V12.5ZM73 12.5H145V11.5H73V12.5ZM72 12.5H73V11.5H72V12.5ZM67.5643 12.5H72V11.5H67.5643V12.5ZM67.6849 11.5147C66.8222 11.3004 65.9662 10.9966 65.2572 10.5713L64.7428 11.4287C65.567 11.9233 66.5263 12.2573 67.4438 12.4853L67.6849 11.5147ZM65.2572 10.5713C63.8567 9.73094 62.5916 8.19433 61.6701 6.93918L60.864 7.53098C61.7894 8.79147 63.1552 10.4762 64.7428 11.4287L65.2572 10.5713ZM52 1.5C55.9807 1.5 59.3907 3.94847 60.8039 7.42344L61.7302 7.04672C60.1691 3.20793 56.4014 0.5 52 0.5V1.5ZM11 1.5H52V0.5H11V1.5Z" fill="#D9D9D9"/>
<rect x="1" y="23" width="154" height="103" rx="10" fill="white"/>
<mask id="mask0_397_433" style="mask-type:alpha" maskUnits="userSpaceOnUse" x="41" y="38" width="73" height="73">
<rect x="41" y="38" width="73" height="73" fill="#D9D9D9"/>
</mask>
<g mask="url(#mask0_397_433)">
<path d="M98.3355 104.841C97.9299 104.841 97.5497 104.777 97.1948 104.65C96.84 104.524 96.5105 104.308 96.2063 104.004L80.6938 88.4916C80.3896 88.1875 80.1742 87.8579 80.0474 87.5031C79.9207 87.1482 79.8573 86.768 79.8573 86.3625C79.8573 85.9569 79.9207 85.5767 80.0474 85.2218C80.1742 84.867 80.3896 84.5375 80.6938 84.2333L87.1573 77.7698C87.4615 77.4656 87.791 77.2501 88.1459 77.1234C88.5007 76.9967 88.8809 76.9333 89.2865 76.9333C89.6921 76.9333 90.0723 76.9967 90.4271 77.1234C90.782 77.2501 91.1115 77.4656 91.4157 77.7698L106.928 93.2823C107.232 93.5864 107.448 93.9159 107.575 94.2708C107.701 94.6257 107.765 95.0059 107.765 95.4114C107.765 95.817 107.701 96.1972 107.575 96.552C107.448 96.9069 107.232 97.2364 106.928 97.5406L100.465 104.004C100.16 104.308 99.8309 104.524 99.4761 104.65C99.1212 104.777 98.741 104.841 98.3355 104.841ZM56.5886 104.917C56.183 104.917 55.7901 104.841 55.4099 104.689C55.0297 104.536 54.6875 104.308 54.3834 104.004L47.9959 97.6166C47.6917 97.3125 47.4636 96.9703 47.3115 96.5901C47.1594 96.2099 47.0834 95.817 47.0834 95.4114C47.0834 95.0059 47.1594 94.6257 47.3115 94.2708C47.4636 93.9159 47.6917 93.5864 47.9959 93.2823L64.1167 77.1614H70.5802L73.1657 74.576L60.6188 62.0291H56.2844L47.0834 52.8281L55.6761 44.2354L64.8771 53.4364V57.7708L77.424 70.3177L86.2448 61.4968L82.975 58.227L87.2334 53.9687H78.6407L76.5115 51.8395L87.3094 41.0416L89.4386 43.1708V51.7635L93.6969 47.5052L104.495 58.3031C105.357 59.1649 106.016 60.1408 106.472 61.2307C106.928 62.3206 107.156 63.4739 107.156 64.6906C107.156 65.9073 106.928 67.0732 106.472 68.1885C106.016 69.3038 105.357 70.2923 104.495 71.1541L98.0313 64.6906L93.773 68.9489L90.5792 65.7552L74.8386 81.4958V87.8833L58.7177 104.004C58.4136 104.308 58.0841 104.536 57.7292 104.689C57.3743 104.841 56.9941 104.917 56.5886 104.917Z" fill="#ECECEC"/>
</g>
<defs>
<linearGradient id="paint0_linear_397_433" x1="78" y1="1" x2="78" y2="95" gradientUnits="userSpaceOnUse">
<stop stop-color="white"/>
<stop offset="0.322917" stop-color="#B5B5B5"/>
</linearGradient>
</defs>
</svg>
