<svg width="156" height="126" viewBox="0 0 156 126" fill="none" xmlns="http://www.w3.org/2000/svg">
<path fill-rule="evenodd" clip-rule="evenodd" d="M11 1C5.47715 1 1 5.47715 1 11V85C1 90.5229 5.47715 95 11 95H52C57.5228 95 62 90.5229 62 85C62 90.5229 66.4772 95 72 95H145C150.523 95 155 90.5229 155 85V22C155 16.4772 150.523 12 145 12H73H72H67.5643C66.6742 11.7789 65.7666 11.46 65 11C63.506 10.1036 62.1905 8.4929 61.2671 7.23508C59.7799 3.5782 56.191 1 52 1H11Z" fill="url(#paint0_linear_397_355)"/>
<path d="M67.5643 12L67.4438 12.4853L67.5032 12.5H67.5643V12ZM65 11L65.2572 10.5713L65.2572 10.5713L65 11ZM61.2671 7.23508L60.8039 7.42344L60.8273 7.48095L60.864 7.53098L61.2671 7.23508ZM1.5 11C1.5 5.75329 5.75329 1.5 11 1.5V0.5C5.20101 0.5 0.5 5.20101 0.5 11H1.5ZM1.5 85V11H0.5V85H1.5ZM11 94.5C5.75329 94.5 1.5 90.2467 1.5 85H0.5C0.5 90.799 5.20101 95.5 11 95.5V94.5ZM52 94.5H11V95.5H52V94.5ZM61.5 85C61.5 90.2467 57.2467 94.5 52 94.5V95.5C57.799 95.5 62.5 90.799 62.5 85H61.5ZM72 94.5C66.7533 94.5 62.5 90.2467 62.5 85H61.5C61.5 90.799 66.201 95.5 72 95.5V94.5ZM145 94.5H72V95.5H145V94.5ZM154.5 85C154.5 90.2467 150.247 94.5 145 94.5V95.5C150.799 95.5 155.5 90.799 155.5 85H154.5ZM154.5 22V85H155.5V22H154.5ZM145 12.5C150.247 12.5 154.5 16.7533 154.5 22H155.5C155.5 16.201 150.799 11.5 145 11.5V12.5ZM73 12.5H145V11.5H73V12.5ZM72 12.5H73V11.5H72V12.5ZM67.5643 12.5H72V11.5H67.5643V12.5ZM67.6849 11.5147C66.8222 11.3004 65.9662 10.9966 65.2572 10.5713L64.7428 11.4287C65.567 11.9233 66.5263 12.2573 67.4438 12.4853L67.6849 11.5147ZM65.2572 10.5713C63.8567 9.73094 62.5916 8.19433 61.6701 6.93918L60.864 7.53098C61.7894 8.79147 63.1552 10.4762 64.7428 11.4287L65.2572 10.5713ZM52 1.5C55.9807 1.5 59.3907 3.94847 60.8039 7.42344L61.7302 7.04672C60.1691 3.20793 56.4014 0.5 52 0.5V1.5ZM11 1.5H52V0.5H11V1.5Z" fill="#D9D9D9"/>
<rect x="1" y="23" width="154" height="103" rx="10" fill="white"/>
<mask id="mask0_397_355" style="mask-type:alpha" maskUnits="userSpaceOnUse" x="41" y="38" width="73" height="73">
<rect x="41" y="38" width="73" height="73" fill="#D9D9D9"/>
</mask>
<g mask="url(#mask0_397_355)">
<path d="M98.7917 101.875C96.8146 101.875 95.0403 101.305 93.4688 100.164C91.8973 99.0234 90.8073 97.566 90.199 95.7917H74.4584C71.1125 95.7917 68.2483 94.6003 65.8657 92.2177C63.483 89.8351 62.2917 86.9708 62.2917 83.625C62.2917 80.2792 63.483 77.4149 65.8657 75.0323C68.2483 72.6497 71.1125 71.4583 74.4584 71.4583H80.5417C82.2146 71.4583 83.6467 70.8627 84.8381 69.6714C86.0294 68.48 86.625 67.0479 86.625 65.375C86.625 63.7021 86.0294 62.27 84.8381 61.0786C83.6467 59.8873 82.2146 59.2917 80.5417 59.2917H64.8011C64.1421 61.066 63.0395 62.5234 61.4933 63.6641C59.9471 64.8047 58.1855 65.375 56.2084 65.375C53.6737 65.375 51.5191 64.4878 49.7448 62.7135C47.9705 60.9392 47.0834 58.7847 47.0834 56.25C47.0834 53.7153 47.9705 51.5608 49.7448 49.7865C51.5191 48.0122 53.6737 47.125 56.2084 47.125C58.1855 47.125 59.9471 47.6953 61.4933 48.8359C63.0395 49.9766 64.1421 51.434 64.8011 53.2083H80.5417C83.8875 53.2083 86.7518 54.3997 89.1344 56.7823C91.5171 59.1649 92.7084 62.0292 92.7084 65.375C92.7084 68.7208 91.5171 71.5851 89.1344 73.9677C86.7518 76.3503 83.8875 77.5417 80.5417 77.5417H74.4584C72.7855 77.5417 71.3533 78.1373 70.162 79.3286C68.9707 80.52 68.375 81.9521 68.375 83.625C68.375 85.2979 68.9707 86.73 70.162 87.9214C71.3533 89.1127 72.7855 89.7083 74.4584 89.7083H90.199C90.858 87.934 91.9606 86.4766 93.5068 85.3359C95.053 84.1953 96.8146 83.625 98.7917 83.625C101.326 83.625 103.481 84.5122 105.255 86.2865C107.03 88.0608 107.917 90.2153 107.917 92.75C107.917 95.2847 107.03 97.4392 105.255 99.2135C103.481 100.988 101.326 101.875 98.7917 101.875ZM56.2084 59.2917C57.0702 59.2917 57.7926 59.0002 58.3756 58.4172C58.9585 57.8342 59.25 57.1118 59.25 56.25C59.25 55.3882 58.9585 54.6658 58.3756 54.0828C57.7926 53.4998 57.0702 53.2083 56.2084 53.2083C55.3466 53.2083 54.6242 53.4998 54.0412 54.0828C53.4582 54.6658 53.1667 55.3882 53.1667 56.25C53.1667 57.1118 53.4582 57.8342 54.0412 58.4172C54.6242 59.0002 55.3466 59.2917 56.2084 59.2917Z" fill="#ECECEC"/>
</g>
<defs>
<linearGradient id="paint0_linear_397_355" x1="78" y1="1" x2="78" y2="95" gradientUnits="userSpaceOnUse">
<stop stop-color="white"/>
<stop offset="0.322917" stop-color="#B5B5B5"/>
</linearGradient>
</defs>
</svg>
