<svg width="174" height="126" viewBox="0 0 174 126" fill="none" xmlns="http://www.w3.org/2000/svg">
<path fill-rule="evenodd" clip-rule="evenodd" d="M20 1C14.4772 1 10 5.47715 10 11V85C10 90.5229 14.4772 95 20 95H61C66.5228 95 71 90.5229 71 85C71 90.5229 75.4772 95 81 95H154C159.523 95 164 90.5229 164 85V22C164 16.4772 159.523 12 154 12H82H81H76.5643C75.6742 11.7789 74.7666 11.46 74 11C72.506 10.1036 71.1905 8.4929 70.2671 7.23508C68.7799 3.5782 65.191 1 61 1H20Z" fill="url(#paint0_linear_397_504)"/>
<path d="M76.5643 12L76.4438 12.4853L76.5032 12.5H76.5643V12ZM74 11L74.2572 10.5713L74.2572 10.5713L74 11ZM70.2671 7.23508L69.8039 7.42344L69.8273 7.48095L69.864 7.53098L70.2671 7.23508ZM10.5 11C10.5 5.75329 14.7533 1.5 20 1.5V0.5C14.201 0.5 9.5 5.20101 9.5 11H10.5ZM10.5 85V11H9.5V85H10.5ZM20 94.5C14.7533 94.5 10.5 90.2467 10.5 85H9.5C9.5 90.799 14.201 95.5 20 95.5V94.5ZM61 94.5H20V95.5H61V94.5ZM70.5 85C70.5 90.2467 66.2467 94.5 61 94.5V95.5C66.799 95.5 71.5 90.799 71.5 85H70.5ZM81 94.5C75.7533 94.5 71.5 90.2467 71.5 85H70.5C70.5 90.799 75.201 95.5 81 95.5V94.5ZM154 94.5H81V95.5H154V94.5ZM163.5 85C163.5 90.2467 159.247 94.5 154 94.5V95.5C159.799 95.5 164.5 90.799 164.5 85H163.5ZM163.5 22V85H164.5V22H163.5ZM154 12.5C159.247 12.5 163.5 16.7533 163.5 22H164.5C164.5 16.201 159.799 11.5 154 11.5V12.5ZM82 12.5H154V11.5H82V12.5ZM81 12.5H82V11.5H81V12.5ZM76.5643 12.5H81V11.5H76.5643V12.5ZM76.6849 11.5147C75.8222 11.3004 74.9662 10.9966 74.2572 10.5713L73.7428 11.4287C74.567 11.9233 75.5263 12.2573 76.4438 12.4853L76.6849 11.5147ZM74.2572 10.5713C72.8567 9.73094 71.5916 8.19433 70.6701 6.93918L69.864 7.53098C70.7894 8.79147 72.1552 10.4762 73.7428 11.4287L74.2572 10.5713ZM61 1.5C64.9807 1.5 68.3907 3.94847 69.8039 7.42344L70.7302 7.04672C69.1691 3.20793 65.4014 0.5 61 0.5V1.5ZM20 1.5H61V0.5H20V1.5Z" fill="#D9D9D9"/>
<path d="M1.3312 53.1821C0.622936 47.2327 5.26962 42 11.2611 42H162.739C168.73 42 173.377 47.2327 172.669 53.1821L165.05 117.182C164.451 122.212 160.185 126 155.12 126H18.8801C13.8145 126 9.54907 122.212 8.95025 117.182L1.3312 53.1821Z" fill="white"/>
<mask id="mask0_397_504" style="mask-type:alpha" maskUnits="userSpaceOnUse" x="50" y="55" width="73" height="59">
<rect x="50" y="55" width="73" height="59" fill="#D9D9D9"/>
</mask>
<g mask="url(#mask0_397_504)">
<path d="M107.335 109.022C106.93 109.022 106.55 108.971 106.195 108.868C105.84 108.766 105.51 108.592 105.206 108.346L89.6938 95.8084C89.3896 95.5625 89.1742 95.2962 89.0474 95.0094C88.9207 94.7226 88.8573 94.4153 88.8573 94.0875C88.8573 93.7598 88.9207 93.4525 89.0474 93.1657C89.1742 92.8789 89.3896 92.6125 89.6938 92.3667L96.1573 87.1427C96.4615 86.8969 96.791 86.7228 97.1459 86.6204C97.5007 86.5179 97.8809 86.4667 98.2865 86.4667C98.6921 86.4667 99.0723 86.5179 99.4271 86.6204C99.782 86.7228 100.111 86.8969 100.416 87.1427L115.928 99.6803C116.232 99.9261 116.448 100.192 116.575 100.479C116.701 100.766 116.765 101.073 116.765 101.401C116.765 101.729 116.701 102.036 116.575 102.323C116.448 102.61 116.232 102.876 115.928 103.122L109.465 108.346C109.16 108.592 108.831 108.766 108.476 108.868C108.121 108.971 107.741 109.022 107.335 109.022ZM65.5886 109.083C65.183 109.083 64.7901 109.022 64.4099 108.899C64.0297 108.776 63.6875 108.592 63.3834 108.346L56.9959 103.183C56.6917 102.938 56.4636 102.661 56.3115 102.354C56.1594 102.046 56.0834 101.729 56.0834 101.401C56.0834 101.073 56.1594 100.766 56.3115 100.479C56.4636 100.192 56.6917 99.9261 56.9959 99.6803L73.1167 86.6511H79.5802L82.1657 84.5615L69.6188 74.4209H65.2844L56.0834 66.9844L64.6761 60.0396L73.8771 67.4761V70.9792L86.424 81.1198L95.2448 73.9907L91.975 71.348L96.2334 67.9063H87.6407L85.5115 66.1855L96.3094 57.4584L98.4386 59.1792V66.124L102.697 62.6823L113.495 71.4094C114.357 72.1059 115.016 72.8947 115.472 73.7756C115.928 74.6565 116.156 75.5886 116.156 76.5719C116.156 77.5552 115.928 78.4976 115.472 79.399C115.016 80.3004 114.357 81.0993 113.495 81.7959L107.031 76.5719L102.773 80.0136L99.5792 77.4323L83.8386 90.1542V95.3167L67.7177 108.346C67.4136 108.592 67.0841 108.776 66.7292 108.899C66.3743 109.022 65.9941 109.083 65.5886 109.083Z" fill="#ECECEC"/>
</g>
<defs>
<linearGradient id="paint0_linear_397_504" x1="87" y1="1" x2="87" y2="95" gradientUnits="userSpaceOnUse">
<stop stop-color="white"/>
<stop offset="0.432292" stop-color="#B5B5B5"/>
</linearGradient>
</defs>
</svg>
