<svg width="174" height="126" viewBox="0 0 174 126" fill="none" xmlns="http://www.w3.org/2000/svg">
<path fill-rule="evenodd" clip-rule="evenodd" d="M20 1C14.4772 1 10 5.47715 10 11V85C10 90.5229 14.4772 95 20 95H61C66.5228 95 71 90.5229 71 85C71 90.5229 75.4772 95 81 95H154C159.523 95 164 90.5229 164 85V22C164 16.4772 159.523 12 154 12H82H81H76.5643C75.6742 11.7789 74.7666 11.46 74 11C72.506 10.1036 71.1905 8.4929 70.2671 7.23508C68.7799 3.5782 65.191 1 61 1H20Z" fill="url(#paint0_linear_397_484)"/>
<path d="M76.5643 12L76.4438 12.4853L76.5032 12.5H76.5643V12ZM74 11L74.2572 10.5713L74.2572 10.5713L74 11ZM70.2671 7.23508L69.8039 7.42344L69.8273 7.48095L69.864 7.53098L70.2671 7.23508ZM10.5 11C10.5 5.75329 14.7533 1.5 20 1.5V0.5C14.201 0.5 9.5 5.20101 9.5 11H10.5ZM10.5 85V11H9.5V85H10.5ZM20 94.5C14.7533 94.5 10.5 90.2467 10.5 85H9.5C9.5 90.799 14.201 95.5 20 95.5V94.5ZM61 94.5H20V95.5H61V94.5ZM70.5 85C70.5 90.2467 66.2467 94.5 61 94.5V95.5C66.799 95.5 71.5 90.799 71.5 85H70.5ZM81 94.5C75.7533 94.5 71.5 90.2467 71.5 85H70.5C70.5 90.799 75.201 95.5 81 95.5V94.5ZM154 94.5H81V95.5H154V94.5ZM163.5 85C163.5 90.2467 159.247 94.5 154 94.5V95.5C159.799 95.5 164.5 90.799 164.5 85H163.5ZM163.5 22V85H164.5V22H163.5ZM154 12.5C159.247 12.5 163.5 16.7533 163.5 22H164.5C164.5 16.201 159.799 11.5 154 11.5V12.5ZM82 12.5H154V11.5H82V12.5ZM81 12.5H82V11.5H81V12.5ZM76.5643 12.5H81V11.5H76.5643V12.5ZM76.6849 11.5147C75.8222 11.3004 74.9662 10.9966 74.2572 10.5713L73.7428 11.4287C74.567 11.9233 75.5263 12.2573 76.4438 12.4853L76.6849 11.5147ZM74.2572 10.5713C72.8567 9.73094 71.5916 8.19433 70.6701 6.93918L69.864 7.53098C70.7894 8.79147 72.1552 10.4762 73.7428 11.4287L74.2572 10.5713ZM61 1.5C64.9807 1.5 68.3907 3.94847 69.8039 7.42344L70.7302 7.04672C69.1691 3.20793 65.4014 0.5 61 0.5V1.5ZM20 1.5H61V0.5H20V1.5Z" fill="#D9D9D9"/>
<path d="M1.3312 53.1821C0.622936 47.2327 5.26962 42 11.2611 42H162.739C168.73 42 173.377 47.2327 172.669 53.1821L165.05 117.182C164.451 122.212 160.185 126 155.12 126H18.8801C13.8145 126 9.54907 122.212 8.95025 117.182L1.3312 53.1821Z" fill="white"/>
<mask id="mask0_397_484" style="mask-type:alpha" maskUnits="userSpaceOnUse" x="50" y="55" width="73" height="59">
<rect x="50" y="55" width="73" height="59" fill="#D9D9D9"/>
</mask>
<g mask="url(#mask0_397_484)">
<path d="M107.792 106.625C105.815 106.625 104.04 106.164 102.469 105.242C100.897 104.32 99.8073 103.142 99.199 101.708H83.4584C80.1125 101.708 77.2483 100.745 74.8657 98.8198C72.483 96.8941 71.2917 94.5792 71.2917 91.875C71.2917 89.1708 72.483 86.8559 74.8657 84.9302C77.2483 83.0045 80.1125 82.0417 83.4584 82.0417H89.5417C91.2146 82.0417 92.6467 81.5602 93.8381 80.5974C95.0294 79.6345 95.625 78.4771 95.625 77.125C95.625 75.7729 95.0294 74.6155 93.8381 73.6526C92.6467 72.6898 91.2146 72.2083 89.5417 72.2083H73.8011C73.1421 73.6424 72.0395 74.8203 70.4933 75.7422C68.9471 76.6641 67.1855 77.125 65.2084 77.125C62.6737 77.125 60.5191 76.408 58.7448 74.974C56.9705 73.5399 56.0834 71.7986 56.0834 69.75C56.0834 67.7014 56.9705 65.9601 58.7448 64.526C60.5191 63.092 62.6737 62.375 65.2084 62.375C67.1855 62.375 68.9471 62.8359 70.4933 63.7578C72.0395 64.6797 73.1421 65.8576 73.8011 67.2917H89.5417C92.8875 67.2917 95.7518 68.2545 98.1344 70.1802C100.517 72.1059 101.708 74.4208 101.708 77.125C101.708 79.8292 100.517 82.1441 98.1344 84.0698C95.7518 85.9955 92.8875 86.9583 89.5417 86.9583H83.4584C81.7855 86.9583 80.3533 87.4398 79.162 88.4026C77.9707 89.3655 77.375 90.5229 77.375 91.875C77.375 93.2271 77.9707 94.3845 79.162 95.3474C80.3533 96.3102 81.7855 96.7917 83.4584 96.7917H99.199C99.858 95.3576 100.961 94.1797 102.507 93.2578C104.053 92.3359 105.815 91.875 107.792 91.875C110.326 91.875 112.481 92.592 114.255 94.026C116.03 95.4601 116.917 97.2014 116.917 99.25C116.917 101.299 116.03 103.04 114.255 104.474C112.481 105.908 110.326 106.625 107.792 106.625ZM65.2084 72.2083C66.0702 72.2083 66.7926 71.9727 67.3756 71.5016C67.9585 71.0304 68.25 70.4465 68.25 69.75C68.25 69.0535 67.9585 68.4696 67.3756 67.9984C66.7926 67.5273 66.0702 67.2917 65.2084 67.2917C64.3466 67.2917 63.6242 67.5273 63.0412 67.9984C62.4582 68.4696 62.1667 69.0535 62.1667 69.75C62.1667 70.4465 62.4582 71.0304 63.0412 71.5016C63.6242 71.9727 64.3466 72.2083 65.2084 72.2083Z" fill="#ECECEC"/>
</g>
<defs>
<linearGradient id="paint0_linear_397_484" x1="87" y1="1" x2="87" y2="95" gradientUnits="userSpaceOnUse">
<stop stop-color="white"/>
<stop offset="0.432292" stop-color="#B5B5B5"/>
</linearGradient>
</defs>
</svg>
