<svg width="156" height="126" viewBox="0 0 156 126" fill="none" xmlns="http://www.w3.org/2000/svg">
<path fill-rule="evenodd" clip-rule="evenodd" d="M11 1C5.47715 1 1 5.47715 1 11V85C1 90.5229 5.47715 95 11 95H52C57.5228 95 62 90.5229 62 85C62 90.5229 66.4772 95 72 95H145C150.523 95 155 90.5229 155 85V22C155 16.4772 150.523 12 145 12H73H72H67.5643C66.6742 11.7789 65.7666 11.46 65 11C63.506 10.1036 62.1905 8.4929 61.2671 7.23508C59.7799 3.5782 56.191 1 52 1H11Z" fill="url(#paint0_linear_397_394)"/>
<path d="M67.5643 12L67.4438 12.4853L67.5032 12.5H67.5643V12ZM65 11L65.2572 10.5713L65.2572 10.5713L65 11ZM61.2671 7.23508L60.8039 7.42344L60.8273 7.48095L60.864 7.53098L61.2671 7.23508ZM1.5 11C1.5 5.75329 5.75329 1.5 11 1.5V0.5C5.20101 0.5 0.5 5.20101 0.5 11H1.5ZM1.5 85V11H0.5V85H1.5ZM11 94.5C5.75329 94.5 1.5 90.2467 1.5 85H0.5C0.5 90.799 5.20101 95.5 11 95.5V94.5ZM52 94.5H11V95.5H52V94.5ZM61.5 85C61.5 90.2467 57.2467 94.5 52 94.5V95.5C57.799 95.5 62.5 90.799 62.5 85H61.5ZM72 94.5C66.7533 94.5 62.5 90.2467 62.5 85H61.5C61.5 90.799 66.201 95.5 72 95.5V94.5ZM145 94.5H72V95.5H145V94.5ZM154.5 85C154.5 90.2467 150.247 94.5 145 94.5V95.5C150.799 95.5 155.5 90.799 155.5 85H154.5ZM154.5 22V85H155.5V22H154.5ZM145 12.5C150.247 12.5 154.5 16.7533 154.5 22H155.5C155.5 16.201 150.799 11.5 145 11.5V12.5ZM73 12.5H145V11.5H73V12.5ZM72 12.5H73V11.5H72V12.5ZM67.5643 12.5H72V11.5H67.5643V12.5ZM67.6849 11.5147C66.8222 11.3004 65.9662 10.9966 65.2572 10.5713L64.7428 11.4287C65.567 11.9233 66.5263 12.2573 67.4438 12.4853L67.6849 11.5147ZM65.2572 10.5713C63.8567 9.73094 62.5916 8.19433 61.6701 6.93918L60.864 7.53098C61.7894 8.79147 63.1552 10.4762 64.7428 11.4287L65.2572 10.5713ZM52 1.5C55.9807 1.5 59.3907 3.94847 60.8039 7.42344L61.7302 7.04672C60.1691 3.20793 56.4014 0.5 52 0.5V1.5ZM11 1.5H52V0.5H11V1.5Z" fill="#D9D9D9"/>
<rect x="1" y="23" width="154" height="103" rx="10" fill="white"/>
<mask id="mask0_397_394" style="mask-type:alpha" maskUnits="userSpaceOnUse" x="41" y="38" width="73" height="73">
<rect x="41" y="38" width="73" height="73" fill="#D9D9D9"/>
</mask>
<g mask="url(#mask0_397_394)">
<path d="M59.25 104.917C56.7153 104.917 54.5608 104.03 52.7865 102.255C51.0122 100.481 50.125 98.3264 50.125 95.7917V92.75C50.125 91.0771 50.7207 89.645 51.912 88.4537C53.1033 87.2624 54.5354 86.6667 56.2083 86.6667H59.25V50.1667C59.25 48.4938 59.8457 47.0617 61.037 45.8704C62.2283 44.679 63.6604 44.0834 65.3333 44.0834H98.7917C100.465 44.0834 101.897 44.679 103.088 45.8704C104.279 47.0617 104.875 48.4938 104.875 50.1667V95.7917C104.875 98.3264 103.988 100.481 102.214 102.255C100.439 104.03 98.2847 104.917 95.75 104.917H59.25ZM95.75 98.8334C96.6118 98.8334 97.3342 98.5419 97.9172 97.9589C98.5002 97.3759 98.7917 96.6535 98.7917 95.7917V50.1667H65.3333V86.6667H86.625C88.2979 86.6667 89.73 87.2624 90.9214 88.4537C92.1127 89.645 92.7083 91.0771 92.7083 92.75V95.7917C92.7083 96.6535 92.9998 97.3759 93.5828 97.9589C94.1658 98.5419 94.8882 98.8334 95.75 98.8334ZM71.4167 65.375C70.5549 65.375 69.8325 65.0835 69.2495 64.5006C68.6665 63.9176 68.375 63.1952 68.375 62.3334C68.375 61.4716 68.6665 60.7492 69.2495 60.1662C69.8325 59.5832 70.5549 59.2917 71.4167 59.2917H92.7083C93.5701 59.2917 94.2925 59.5832 94.8755 60.1662C95.4585 60.7492 95.75 61.4716 95.75 62.3334C95.75 63.1952 95.4585 63.9176 94.8755 64.5006C94.2925 65.0835 93.5701 65.375 92.7083 65.375H71.4167ZM71.4167 74.5C70.5549 74.5 69.8325 74.2085 69.2495 73.6256C68.6665 73.0426 68.375 72.3202 68.375 71.4584C68.375 70.5966 68.6665 69.8742 69.2495 69.2912C69.8325 68.7082 70.5549 68.4167 71.4167 68.4167H92.7083C93.5701 68.4167 94.2925 68.7082 94.8755 69.2912C95.4585 69.8742 95.75 70.5966 95.75 71.4584C95.75 72.3202 95.4585 73.0426 94.8755 73.6256C94.2925 74.2085 93.5701 74.5 92.7083 74.5H71.4167Z" fill="#ECECEC"/>
</g>
<defs>
<linearGradient id="paint0_linear_397_394" x1="78" y1="1" x2="78" y2="95" gradientUnits="userSpaceOnUse">
<stop stop-color="white"/>
<stop offset="0.322917" stop-color="#B5B5B5"/>
</linearGradient>
</defs>
</svg>
