<svg width="73" height="73" viewBox="0 0 73 73" fill="none" xmlns="http://www.w3.org/2000/svg">
<mask id="mask0_50_230" style="mask-type:alpha" maskUnits="userSpaceOnUse" x="0" y="0" width="73" height="73">
<rect width="73" height="73" fill="#D9D9D9"/>
</mask>
<g mask="url(#mask0_50_230)">
<path d="M36.5 51.7083C37.3618 51.7083 38.0842 51.4168 38.6672 50.8338C39.2502 50.2508 39.5417 49.5285 39.5417 48.6666V36.5C39.5417 35.6382 39.2502 34.9158 38.6672 34.3328C38.0842 33.7498 37.3618 33.4583 36.5 33.4583C35.6382 33.4583 34.9158 33.7498 34.3329 34.3328C33.7499 34.9158 33.4584 35.6382 33.4584 36.5V48.6666C33.4584 49.5285 33.7499 50.2508 34.3329 50.8338C34.9158 51.4168 35.6382 51.7083 36.5 51.7083ZM36.5 27.375C37.3618 27.375 38.0842 27.0835 38.6672 26.5005C39.2502 25.9175 39.5417 25.1951 39.5417 24.3333C39.5417 23.4715 39.2502 22.7491 38.6672 22.1661C38.0842 21.5831 37.3618 21.2916 36.5 21.2916C35.6382 21.2916 34.9158 21.5831 34.3329 22.1661C33.7499 22.7491 33.4584 23.4715 33.4584 24.3333C33.4584 25.1951 33.7499 25.9175 34.3329 26.5005C34.9158 27.0835 35.6382 27.375 36.5 27.375ZM36.5 66.9166C32.2924 66.9166 28.3382 66.1182 24.6375 64.5213C20.9368 62.9245 17.7177 60.7573 14.9802 58.0198C12.2427 55.2823 10.0756 52.0632 8.47869 48.3625C6.88181 44.6618 6.08337 40.7076 6.08337 36.5C6.08337 32.2923 6.88181 28.3382 8.47869 24.6375C10.0756 20.9368 12.2427 17.7177 14.9802 14.9802C17.7177 12.2427 20.9368 10.0755 24.6375 8.47863C28.3382 6.88175 32.2924 6.08331 36.5 6.08331C40.7077 6.08331 44.6618 6.88175 48.3625 8.47863C52.0632 10.0755 55.2823 12.2427 58.0198 14.9802C60.7573 17.7177 62.9245 20.9368 64.5214 24.6375C66.1183 28.3382 66.9167 32.2923 66.9167 36.5C66.9167 40.7076 66.1183 44.6618 64.5214 48.3625C62.9245 52.0632 60.7573 55.2823 58.0198 58.0198C55.2823 60.7573 52.0632 62.9245 48.3625 64.5213C44.6618 66.1182 40.7077 66.9166 36.5 66.9166Z" fill="#ECECEC"/>
</g>
</svg>
