<svg width="50" height="50" viewBox="0 0 50 50" fill="none" xmlns="http://www.w3.org/2000/svg">
<mask id="mask0_50_702" style="mask-type:alpha" maskUnits="userSpaceOnUse" x="0" y="0" width="50" height="50">
<rect width="50" height="50" fill="#D9D9D9"/>
</mask>
<g mask="url(#mask0_50_702)">
<path d="M24.9999 40.3125C29.236 36.4236 32.3784 32.8906 34.427 29.7135C36.4756 26.5364 37.4999 23.7153 37.4999 21.25C37.4999 17.4653 36.2933 14.3663 33.8801 11.9531C31.4669 9.53992 28.5069 8.33332 24.9999 8.33332C21.493 8.33332 18.5329 9.53992 16.1197 11.9531C13.7065 14.3663 12.4999 17.4653 12.4999 21.25C12.4999 23.7153 13.5242 26.5364 15.5728 29.7135C17.6214 32.8906 20.7638 36.4236 24.9999 40.3125ZM24.9999 44.4271C24.5138 44.4271 24.0277 44.3403 23.5416 44.1667C23.0555 43.993 22.6214 43.7326 22.2395 43.3854C19.9826 41.3021 17.986 39.2708 16.2499 37.2917C14.5138 35.3125 13.0642 33.3941 11.901 31.5364C10.7378 29.6788 9.85235 27.8906 9.24471 26.1719C8.63707 24.4531 8.33325 22.8125 8.33325 21.25C8.33325 16.0417 10.0086 11.8924 13.3593 8.80207C16.71 5.7118 20.5902 4.16666 24.9999 4.16666C29.4096 4.16666 33.2898 5.7118 36.6405 8.80207C39.9912 11.8924 41.6666 16.0417 41.6666 21.25C41.6666 22.8125 41.3628 24.4531 40.7551 26.1719C40.1475 27.8906 39.2621 29.6788 38.0989 31.5364C36.9357 33.3941 35.486 35.3125 33.7499 37.2917C32.0138 39.2708 30.0173 41.3021 27.7603 43.3854C27.3784 43.7326 26.9444 43.993 26.4583 44.1667C25.9721 44.3403 25.486 44.4271 24.9999 44.4271ZM24.9999 25C26.1458 25 27.1267 24.592 27.9426 23.776C28.7586 22.9601 29.1666 21.9792 29.1666 20.8333C29.1666 19.6875 28.7586 18.7066 27.9426 17.8906C27.1267 17.0746 26.1458 16.6667 24.9999 16.6667C23.8541 16.6667 22.8732 17.0746 22.0572 17.8906C21.2412 18.7066 20.8333 19.6875 20.8333 20.8333C20.8333 21.9792 21.2412 22.9601 22.0572 23.776C22.8732 24.592 23.8541 25 24.9999 25Z" fill="white"/>
</g>
</svg>
