<svg width="73" height="59" viewBox="0 0 73 59" fill="none" xmlns="http://www.w3.org/2000/svg">
<mask id="mask0_50_493" style="mask-type:alpha" maskUnits="userSpaceOnUse" x="0" y="0" width="73" height="59">
<rect width="73" height="59" fill="#D9D9D9"/>
</mask>
<g mask="url(#mask0_50_493)">
<path d="M57.7917 51.625C55.8146 51.625 54.0403 51.1641 52.4688 50.2422C50.8973 49.3203 49.8073 48.1424 49.199 46.7083H33.4584C30.1125 46.7083 27.2483 45.7455 24.8657 43.8198C22.483 41.8941 21.2917 39.5792 21.2917 36.875C21.2917 34.1708 22.483 31.8559 24.8657 29.9302C27.2483 28.0045 30.1125 27.0417 33.4584 27.0417H39.5417C41.2146 27.0417 42.6467 26.5602 43.8381 25.5974C45.0294 24.6345 45.625 23.4771 45.625 22.125C45.625 20.7729 45.0294 19.6155 43.8381 18.6526C42.6467 17.6898 41.2146 17.2083 39.5417 17.2083H23.8011C23.1421 18.6424 22.0395 19.8203 20.4933 20.7422C18.9471 21.6641 17.1855 22.125 15.2084 22.125C12.6737 22.125 10.5191 21.408 8.74483 19.974C6.97053 18.5399 6.08337 16.7986 6.08337 14.75C6.08337 12.7014 6.97053 10.9601 8.74483 9.52604C10.5191 8.09201 12.6737 7.375 15.2084 7.375C17.1855 7.375 18.9471 7.83594 20.4933 8.75781C22.0395 9.67969 23.1421 10.8576 23.8011 12.2917H39.5417C42.8875 12.2917 45.7518 13.2545 48.1344 15.1802C50.5171 17.1059 51.7084 19.4208 51.7084 22.125C51.7084 24.8292 50.5171 27.1441 48.1344 29.0698C45.7518 30.9955 42.8875 31.9583 39.5417 31.9583H33.4584C31.7855 31.9583 30.3533 32.4398 29.162 33.4026C27.9707 34.3655 27.375 35.5229 27.375 36.875C27.375 38.2271 27.9707 39.3845 29.162 40.3474C30.3533 41.3102 31.7855 41.7917 33.4584 41.7917H49.199C49.858 40.3576 50.9606 39.1797 52.5068 38.2578C54.053 37.3359 55.8146 36.875 57.7917 36.875C60.3264 36.875 62.4809 37.592 64.2552 39.026C66.0296 40.4601 66.9167 42.2014 66.9167 44.25C66.9167 46.2986 66.0296 48.0399 64.2552 49.474C62.4809 50.908 60.3264 51.625 57.7917 51.625ZM15.2084 17.2083C16.0702 17.2083 16.7926 16.9727 17.3756 16.5016C17.9585 16.0304 18.25 15.4465 18.25 14.75C18.25 14.0535 17.9585 13.4696 17.3756 12.9984C16.7926 12.5273 16.0702 12.2917 15.2084 12.2917C14.3466 12.2917 13.6242 12.5273 13.0412 12.9984C12.4582 13.4696 12.1667 14.0535 12.1667 14.75C12.1667 15.4465 12.4582 16.0304 13.0412 16.5016C13.6242 16.9727 14.3466 17.2083 15.2084 17.2083Z" fill="#ECECEC"/>
</g>
</svg>
