<svg width="73" height="59" viewBox="0 0 73 59" fill="none" xmlns="http://www.w3.org/2000/svg">
<mask id="mask0_50_505" style="mask-type:alpha" maskUnits="userSpaceOnUse" x="0" y="0" width="73" height="59">
<rect width="73" height="59" fill="#D9D9D9"/>
</mask>
<g mask="url(#mask0_50_505)">
<path d="M57.3355 54.0219C56.9299 54.0219 56.5497 53.9707 56.1948 53.8683C55.84 53.7658 55.5105 53.5917 55.2063 53.3459L39.6938 40.8084C39.3896 40.5625 39.1742 40.2962 39.0474 40.0094C38.9207 39.7226 38.8573 39.4153 38.8573 39.0875C38.8573 38.7598 38.9207 38.4525 39.0474 38.1657C39.1742 37.8789 39.3896 37.6125 39.6938 37.3667L46.1573 32.1427C46.4615 31.8969 46.791 31.7228 47.1459 31.6204C47.5007 31.5179 47.8809 31.4667 48.2865 31.4667C48.6921 31.4667 49.0723 31.5179 49.4271 31.6204C49.782 31.7228 50.1115 31.8969 50.4157 32.1427L65.9282 44.6803C66.2323 44.9261 66.4478 45.1924 66.5745 45.4792C66.7013 45.766 66.7646 46.0733 66.7646 46.4011C66.7646 46.7289 66.7013 47.0362 66.5745 47.323C66.4478 47.6098 66.2323 47.8761 65.9282 48.1219L59.4646 53.3459C59.1605 53.5917 58.8309 53.7658 58.4761 53.8683C58.1212 53.9707 57.741 54.0219 57.3355 54.0219ZM15.5886 54.0834C15.183 54.0834 14.7901 54.0219 14.4099 53.899C14.0297 53.7761 13.6875 53.5917 13.3834 53.3459L6.99587 48.1834C6.69171 47.9375 6.46358 47.661 6.3115 47.3537C6.15942 47.0464 6.08337 46.7289 6.08337 46.4011C6.08337 46.0733 6.15942 45.766 6.3115 45.4792C6.46358 45.1924 6.69171 44.9261 6.99587 44.6803L23.1167 31.6511H29.5802L32.1657 29.5615L19.6188 19.4209H15.2844L6.08337 11.9844L14.6761 5.03962L23.8771 12.4761V15.9792L36.424 26.1198L45.2448 18.9907L41.975 16.348L46.2334 12.9063H37.6407L35.5115 11.1855L46.3094 2.45837L48.4386 4.17921V11.124L52.6969 7.68233L63.4948 16.4094C64.3566 17.1059 65.0157 17.8947 65.4719 18.7756C65.9282 19.6565 66.1563 20.5886 66.1563 21.5719C66.1563 22.5552 65.9282 23.4976 65.4719 24.399C65.0157 25.3004 64.3566 26.0993 63.4948 26.7959L57.0313 21.5719L52.773 25.0136L49.5792 22.4323L33.8386 35.1542V40.3167L17.7177 53.3459C17.4136 53.5917 17.0841 53.7761 16.7292 53.899C16.3743 54.0219 15.9941 54.0834 15.5886 54.0834Z" fill="#ECECEC"/>
</g>
</svg>
